<svg width="640" height="400" viewBox="0 0 640 400" fill="none" xmlns="http://www.w3.org/2000/svg">
<g clip-path="url(#clip0)">
<path d="M0 0.000233013V399.968H640V0.000150997H323.32C266.156 -0.0012549 72.0058 -8.2016e-05 0 0.000233013Z" fill="#BBEDE1"/>
<path d="M259.72 188.385C257.735 188.386 255.757 188.614 253.824 189.065C251.509 165.555 236.902 145.035 215.445 135.148C193.988 125.261 152.512 137.5 152.512 137.5C152.512 137.5 130.51 144.5 119.51 161.5C108.509 178.5 109.52 210.295 109.52 210.295H285.32C283.349 197.683 272.486 188.386 259.72 188.385Z" fill="#F5F9F9"/>
<path d="M564.68 181.297C550.096 181.297 535.76 191.505 522.392 195.752L516.744 188.305C516.564 188.063 516.281 187.921 515.98 187.921C515.679 187.921 515.396 188.063 515.216 188.305L508.272 197.472C486.496 196.336 474.112 185.769 457.792 185.769C440.536 185.769 424.032 201.664 399.64 201.664C375.248 201.664 366.68 220.782 349.6 220.782C332.52 220.782 317.656 197.04 302.176 197.04C287.848 197.04 274.712 208.791 259.232 208.791C244.616 208.783 240 196.144 227.2 195.184L222 188.329C221.82 188.087 221.537 187.945 221.236 187.945C220.935 187.945 220.652 188.087 220.472 188.329L216.128 194.056C207.44 192.128 200.928 188.257 192.928 188.257C182.272 188.257 163.768 201.456 154.2 201.456C140.128 201.456 130.104 197.272 118.784 194.336L0 399.968H640V205.879C629.384 202.528 619.912 193.96 608.528 193.96C591.688 193.96 577.48 181.297 564.68 181.297Z" fill="#5DBFA5"/>
<path d="M355.408 302.272C354.992 299.392 353.808 295.233 350.28 295.233C348.344 295.233 346.784 296.505 345.576 298.128L343.504 288.345C342.704 284.449 341.192 284.418 340.2 288.265L337.856 297.28C325.288 291.177 309.528 281.578 287.128 281.578C264.52 281.578 252.968 254.724 238.696 248.78C237.592 246.5 235.784 244.621 232.792 244.621H232.256C231.312 241.573 229.408 238.509 225.592 238.509C224.716 238.509 223.847 238.674 223.032 238.997L221.264 232.182L218.864 231.31L220.68 230.054L219.544 225.582C218.544 221.734 217.056 221.774 216.232 225.662L214.976 231.606C213.817 230.689 212.373 230.208 210.896 230.246C209.16 230.258 207.469 230.799 206.048 231.798L204.744 225.662C203.944 221.774 202.432 221.734 201.432 225.582L199.832 231.726L199.104 228.262C198.304 224.374 196.792 224.342 195.792 228.19L194.192 234.349C180.168 225.318 169.12 202.576 157.392 202.576C155.763 202.588 154.143 202.339 152.592 201.84L150.488 191.865C149.688 187.977 148.176 187.945 147.176 191.793L146.728 193.505L144.848 184.625C144.048 180.738 142.536 180.698 141.536 184.545L139.24 193.393C135.408 191.257 130.44 189.593 122.904 189.593C98.508 183.5 75.5061 157.5 52.5043 165C16.5014 153 10.501 135 -1.5 141V400L435.528 358.372C435.528 358.372 391.824 303.912 355.408 302.272Z" fill="#1B7064"/>
<path d="M148.688 235.557C148.085 234.775 147.242 234.213 146.288 233.958L171.24 298.512H196.368L148.688 235.557Z" fill="#33E39B"/>
<path d="M141.504 235.557L93.8 298.504H171.256L146.304 233.95C144.526 233.448 142.622 234.086 141.504 235.557Z" fill="#99F1CD"/>
<path d="M114.12 304.224C114.12 304.224 108.032 283.361 95 283.361C81.968 283.361 81.96 304.224 81.96 304.224H114.12Z" fill="#1B7064"/>
<path d="M190.336 282.121C183.36 282.121 178.376 288.097 175.248 293.649L171.48 275.826C170.16 269.57 167.76 269.515 166.144 275.706L160.544 297.424C159.392 292.913 156.544 287.297 149.392 287.297C137.472 287.297 131.904 302.976 131.904 302.976H203.408C203.408 302.976 203.376 282.121 190.336 282.121Z" fill="#1B7064"/>
<path fill-rule="evenodd" clip-rule="evenodd" d="M438.24 334.302C444.8 331.518 450.584 329.07 459.2 329.07C467.2 329.07 471.4 334.742 473.6 341.573H640V399.968H0L75.08 269.899C76.5523 269.442 78.0711 269.153 79.608 269.035C79.5998 268.912 79.5998 268.789 79.608 268.667C79.88 263.979 85.712 262.467 90.88 262.771C96.048 263.075 96.904 265.259 96.76 267.803V267.867H97.288C102.624 267.867 106.456 269.851 106.456 272.866C106.456 275.882 104.664 277.738 101.656 278.65C104.552 279.386 105.928 281.098 105.928 283.226C105.914 284.195 105.524 285.122 104.84 285.809C108.24 286.113 109.84 287.689 109.84 289.729C109.804 290.847 109.201 291.869 108.24 292.441C109.554 292.677 110.816 293.143 111.968 293.817C113.591 292.73 115.511 292.171 117.464 292.217C122.368 292.217 126 293.985 126.552 296.537C128.126 295.537 129.96 295.023 131.824 295.057C137.16 295.057 140.992 297.137 140.992 300.056C141.021 301.133 140.744 302.195 140.192 303.12C140.776 303.043 141.363 303.003 141.952 303C148.328 303 151.896 305.456 151.896 308.144C151.893 308.499 151.853 308.853 151.776 309.2C152.603 309.082 153.437 309.024 154.272 309.024C159.536 309.024 162.856 311.031 164.072 314.079C164.658 313.642 165.372 313.408 166.104 313.415C168.192 313.415 169.784 315.623 170.048 319.015C170.674 318.086 171.727 317.535 172.848 317.551C174.704 317.551 176.168 319.311 176.656 322.087C177.394 320.948 178.799 320.438 180.096 320.839C181.199 321.121 182.022 322.04 182.184 323.166C183.264 322.367 184.936 321.823 187.432 321.823C188.893 321.761 190.347 322.052 191.672 322.671C192.442 321.883 193.593 321.601 194.64 321.943C196.416 322.543 197.216 324.038 196.52 326.102C196.403 326.452 196.265 326.794 196.104 327.126C202.616 328.308 209.221 328.903 215.84 328.902C229.683 328.902 251.026 329.258 272.729 329.619L272.73 329.619H272.73H272.731C295.177 329.993 318.007 330.374 333.32 330.374C348.018 330.374 356.628 333.233 365.401 336.146L365.819 336.285L366.4 336.477L368.008 330.47C369.68 324.046 372.168 324.102 373.536 330.59L374.76 336.365L377.416 326.126C379.088 319.703 381.576 319.759 382.944 326.246L385.112 336.485C387.49 334.825 390.316 333.926 393.216 333.91C396.784 333.797 400.16 335.521 402.16 338.477L403.88 331.862L407.824 330.398L404.8 328.302L406.72 320.807C408.384 314.391 410.872 314.447 412.24 320.935L415.576 336.693C418.768 332.35 423.112 328.646 428.712 328.646C433.232 328.646 436.24 331.102 438.24 334.302ZM76.536 294.657C79.1455 295.003 81.775 295.177 84.4074 295.177C85.231 295.174 86.054 295.225 86.8712 295.329L82.7835 287.665C81.8434 287.885 80.8844 288.014 79.9197 288.049C79.1488 289.117 78.1157 289.969 76.92 290.521C77.0711 291.236 77.1196 291.968 77.0639 292.697C77.0176 293.378 76.8382 294.044 76.536 294.657ZM87.1838 291.177L84.784 286.793C85.217 286.489 85.5708 286.086 85.8159 285.617C86.3698 285.781 86.9375 285.893 87.5118 285.953L87.1838 291.177ZM88.56 286.017L88.296 293.217L89.1679 294.801L93.2556 287.713C92.0316 287.459 90.9277 286.803 90.1198 285.849C89.71 285.958 89.288 286.015 88.8639 286.017H88.56ZM92.7998 296.952C92.1839 296.688 91.5519 296.456 90.92 296.248L95.0317 288.081C95.7986 288.178 96.5705 288.231 97.3435 288.241C96.926 288.892 96.7065 289.651 96.7115 290.425C96.7115 291.617 97.5115 292.505 98.8394 293.064C96.1356 293.864 93.5998 295.216 92.7998 296.912V296.952ZM117.896 307.103C118.982 306.579 120.115 306.156 121.28 305.84L121.456 303.144C119.885 303.524 118.272 303.706 116.656 303.688C117.355 304.702 117.781 305.878 117.896 307.103ZM122.384 305.568L122.488 302.832C122.92 302.668 123.34 302.473 123.744 302.248C124.004 303.401 124.672 304.42 125.624 305.12C124.539 305.162 123.461 305.299 122.4 305.528L122.384 305.568ZM140.264 318.119C141.104 318.199 141.968 318.271 142.84 318.327V318.287C142.837 318.243 142.832 318.198 142.828 318.156C142.822 318.089 142.816 318.027 142.816 317.983C142.815 316.915 143.024 315.858 143.432 314.871C142.44 315.005 141.441 315.072 140.44 315.071H140.384C140.491 315.708 140.521 316.355 140.472 316.999C140.445 317.379 140.375 317.754 140.264 318.119Z" fill="#003C3C"/>
<path d="M66.2106 273.301C72.7706 270.518 69.3905 275.146 78.0066 275.146C86.0065 275.146 60.3053 298.168 62.5053 305L75.5063 316L35.7946 338.968L0.000259399 342.5V340.5V339C0.000259399 340 -0.00795078 333.122 0.000259399 333V330V326V321V318V313V311C0.000259399 312 0.000289917 309.5 0.000259399 307.5C0.000289917 309.5 0.000259399 306 0.000289917 302.5C0.000267029 305.141 0.000278473 301.212 0.000285625 300C-0.0355427 301.107 -0.00033617 298.311 0.000326157 296.064C0.000308514 295.449 0.000277042 292.61 0.000335693 288L0.000259399 282L0.000240326 280.5L0.00026226 279L0.000318527 276.5C0.000321388 276 -0.333263 273.889 0.000321388 274L-4.02142 269.47C-2.34945 263.046 0.138608 263.102 1.50661 269.59L2.73058 275.365L5.38655 265.126C7.05853 258.703 9.54658 258.759 10.9146 265.246L13.0826 275.485C15.4601 273.825 18.2865 272.926 21.1866 272.909C24.7543 272.796 28.1307 274.521 30.1306 277.477L31.8506 270.862L35.7946 269.398L32.7706 267.302L34.6906 259.807C36.3546 253.391 38.8426 253.447 40.2106 259.935L43.5465 275.693C46.7385 271.35 51.0826 267.646 56.6826 267.646C61.2026 267.646 64.2106 270.102 66.2106 273.301Z" fill="#003C3C"/>
<path d="M-2.12565e-05 370.5C-2.12565e-05 375 -2.12565e-05 377 -2.12565e-05 381C-0.15652 387 0.156478 388.602 0.156478 388.602C0.156478 388.602 -2.12565e-05 392.5 -2.12565e-05 395.5L0.156462 399.697L-2.12565e-05 399.968H184.96C185.624 399.288 185.976 398.856 185.976 398.856C185.976 398.856 181.368 390.049 168.16 388.873C170.927 385.16 172.909 380.922 173.984 376.418C173.984 376.418 167.88 372.259 158.376 374.442C161.593 370.904 164.03 366.729 165.528 362.187C160.501 360.076 155.023 359.264 149.6 359.828C150.701 356.106 151.153 352.223 150.936 348.348C150.936 348.348 144.064 346.157 135.736 350.748C136.503 347.131 136.67 343.413 136.232 339.741C136.232 339.741 128.304 337.757 119.616 344.149C119.672 339.366 118.718 334.626 116.816 330.238C116.816 330.238 111.448 330.486 105.952 335.173C105.237 331.01 103.933 326.97 102.08 323.174C99.0801 324.819 96.3454 326.906 93.968 329.366C92.856 322.526 89.056 319.055 89.056 319.055C85.0231 320.291 81.372 322.534 78.448 325.574C75.888 318.911 71.248 316.271 71.248 316.271C67.7066 318.32 64.7274 321.214 62.576 324.694C60.9285 321.771 58.9502 319.046 56.6799 316.575C54.7204 318.571 53.0056 320.783 51.5658 323.163C50.0931 320.679 48.3231 318.375 46.2893 316.304C44.0191 318.775 42.0407 321.5 40.3933 324.423C38.2418 320.943 35.2627 318.049 31.7213 316C31.7213 316 27.0813 318.64 24.5213 325.303C21.5973 322.263 17.9463 320.02 13.9133 318.784C13.9133 318.784 10.1133 322.255 9.00134 329.095C6.62393 326.635 3.88919 324.548 0.889329 322.903C-0.500033 326.5 0.000423469 326.78 7.68602e-05 331C-7.69645e-06 332 -0.000110433 335 -0.000110433 335C1.15484e-06 340 -0.0562402 337.218 7.68602e-05 342C-5.5708e-05 343.5 -8.42065e-05 343.5 -8.42065e-05 343.5C-2.74554e-05 346 -8.43257e-05 346 4.34816e-05 347C-2.75746e-05 349 -4.41447e-05 350.477 -4.41447e-05 350.477C-2.74554e-05 353.5 4.36008e-05 353.5 -5.99772e-06 355C-2.74554e-05 357.5 -2.74554e-05 355.5 -4.41447e-05 357.5C-4.41447e-05 362 -4.41447e-05 362 -4.41447e-05 366C-0.156543 370.5 -2.12565e-05 370.5 -2.12565e-05 370.5Z" fill="#002D2D"/>
<path d="M555.2 43.6205C543.986 38.2239 530.954 38.0846 519.627 43.2402C508.3 48.3957 499.847 58.314 496.552 70.3144H640V0H582.472C568.027 10.4155 558.237 26.0742 555.2 43.6205Z" fill="#F5F9F9"/>
<path d="M23.7951 56.6205C35.0094 51.2239 48.041 51.0846 59.3681 56.2402C70.6952 61.3957 79.1484 71.314 82.4431 83.3144H-61.0049V13H-3.47689C10.9678 23.4155 20.7578 39.0742 23.7951 56.6205Z" fill="#F5F9F9"/>
<path d="M283.2 259.571C282.249 258.311 280.907 257.402 279.384 256.987L319.304 360.259H359.504L283.2 259.571Z" fill="#00DC82"/>
<path d="M271.728 259.571L195.424 360.259H319.328L279.408 256.987C276.56 256.19 273.514 257.215 271.728 259.571Z" fill="#33E39B"/>
<path d="M195.424 360.259H265.656L301.712 314.143L289.736 283.513L233.464 310.063L195.424 360.259Z" fill="#99F1CD"/>
<path fill-rule="evenodd" clip-rule="evenodd" d="M344.856 344.908C339.328 344.908 334.912 347.66 331.552 351.076C329.096 345.004 324.352 339.117 315.096 339.117C306.128 339.117 299.408 344.66 294.808 350.54C292.995 349.383 290.887 348.774 288.736 348.788C285.753 348.772 282.892 349.973 280.816 352.116C278.665 349.981 275.759 348.779 272.728 348.772C272.077 348.771 271.426 348.825 270.784 348.932C269.637 348.362 268.436 347.907 267.2 347.572C268.864 346.652 269.876 344.881 269.824 342.98C269.824 340.837 266.96 337.237 261.736 337.157V336.989C261.464 332.309 257.184 330.749 253.424 330.965C253.029 330.987 252.636 331.038 252.248 331.117C251.976 327.694 249.976 324.718 245.928 324.95C244.587 325.017 243.261 325.262 241.984 325.678C239.96 323.558 235.336 322.15 232.048 321.926C232.056 321.806 232.056 321.686 232.048 321.566C231.776 316.887 225.936 315.415 220.768 315.711C215.6 316.007 214.736 318.198 214.88 320.742V320.806H214.352C209.032 320.806 205.2 322.886 205.192 325.79C204.339 325.576 203.463 325.468 202.584 325.47C197.248 325.47 193.416 327.558 193.416 330.469C193.416 334.973 197.336 336.917 203.504 336.917C204.252 336.918 204.999 336.857 205.736 336.733C205.872 337.493 206.231 338.194 206.768 338.749C204.152 338.981 202.6 339.965 202.032 341.349H201.672C187.384 341.349 187.384 364.203 187.384 364.203L359.536 364.243C359.536 364.243 359.528 344.908 344.856 344.908ZM224.464 344.036L224.136 338.813C224.708 338.753 225.273 338.641 225.824 338.477C226.072 338.946 226.429 339.349 226.864 339.653L224.464 344.036ZM240.8 349.428L241.744 344.892C240.406 344.876 239.074 344.72 237.768 344.428L239.112 347.756C239.555 348.185 239.923 348.685 240.2 349.236C240.266 349.257 240.334 349.278 240.402 349.298C240.537 349.339 240.672 349.38 240.8 349.428ZM221.528 338.717C221.937 338.827 222.36 338.883 222.784 338.885H223.08L223.344 346.084L222.48 347.684L218.4 340.581C219.62 340.322 220.72 339.667 221.528 338.717ZM228.856 340.533L224.568 348.58L224.64 351.172C225.935 351.572 227.128 352.249 228.136 353.156L228.136 353.156C228.336 352.924 228.536 352.692 228.752 352.468C228.501 351.91 228.352 351.311 228.312 350.7C228.168 348.172 228.76 345.988 232.52 345.773C234.199 345.647 235.883 345.947 237.416 346.644L236.472 344.117C234.575 343.61 232.903 342.484 231.72 340.917C230.755 340.88 229.796 340.752 228.856 340.533ZM242.312 347.628L242.816 344.901H243.136C243.71 345.458 244.362 345.93 245.072 346.3C244.086 346.59 243.154 347.038 242.312 347.628ZM214.936 343.285C214.936 344.612 213.976 345.556 212.336 346.1C214.404 348.155 216.193 350.474 217.656 352.996C218.498 352.033 219.615 351.349 220.855 351.036L220.959 349.572L216.608 340.941C215.843 341.035 215.074 341.085 214.304 341.093C214.719 341.748 214.938 342.509 214.936 343.285Z" fill="#003C3C"/>
<path d="M610.304 65.2349L595.152 178.114H640V40.2769H630.88C620.864 40.2769 612.248 50.732 610.304 65.2349Z" fill="#003C3C"/>
<path d="M626.344 71.1385L611.2 183.985H640V47.9243C633.144 51.468 627.824 60.1313 626.344 71.1385Z" fill="#002D2D"/>
<path d="M569.272 184.969L554.12 261.427H640V168.066H589.848C579.833 168.067 571.216 175.146 569.272 184.969Z" fill="#003C3C"/>
<path d="M585.312 192.169L570.168 268.627H640V175.266H605.896C595.881 175.269 587.262 182.346 585.312 192.169Z" fill="#002D2D"/>
<path d="M540.08 260.827L531.904 269.002H497.96L494.52 265.571C492.187 263.236 489.021 261.923 485.72 261.923H465.28L463.2 259.851C461.017 257.674 458.059 256.452 454.976 256.451H401.6C399.026 256.451 396.557 257.473 394.736 259.291L391.824 262.203C390.866 263.156 390.328 264.452 390.328 265.803V271.842C390.324 275.142 391.634 278.308 393.968 280.642L417.392 304.064C417.391 310.116 419.797 315.921 424.08 320.198L456.8 352.916C446.899 352.914 438.122 359.285 435.056 368.699L424.888 399.968H640V254.724H554.824C549.295 254.726 543.993 256.921 540.08 260.827Z" fill="#002D2D"/>
<path d="M483.752 364.579C477.075 364.581 471.33 369.301 470.032 375.85L465.232 399.968H510.096V364.579H483.752Z" fill="#003C3C"/>
<path d="M437.2 379.969C436.12 371.25 430.072 364.411 430.072 364.411C426.724 367.515 424.184 371.389 422.672 375.698C419.923 372.609 416.483 370.213 412.632 368.706C412.632 368.706 409.36 372.33 409.432 378.809C406.441 377.828 403.297 377.395 400.152 377.53C400.152 377.53 397.896 384.313 403.528 391.928C399.182 391.636 394.821 392.179 390.68 393.528C391.558 395.818 392.753 397.972 394.232 399.928H461.496V379.969H437.2Z" fill="#002D2D"/>
<path d="M456.8 357.7H457.184C460.147 357.7 462.755 355.745 463.584 352.9H456.8C446.899 352.898 438.122 359.269 435.056 368.683L424.888 399.968H429.936L439.656 370.171C442.074 362.745 448.99 357.714 456.8 357.7Z" fill="#003C3C"/>
<path d="M580.976 254.66H594.272L599.592 234.717H589.016C587.411 234.72 586.008 235.799 585.592 237.349L580.976 254.66Z" fill="#33E39B"/>
<path opacity="0.75" d="M599.592 234.717L597.416 242.877L584.504 254.66H580.976L583.072 246.788L599.592 234.717Z" fill="#99F1CD"/>
<path d="M596.592 237.021C596.954 235.662 598.185 234.717 599.592 234.717H611.816C613.22 234.718 614.449 235.663 614.808 237.021L619.512 254.66H591.888L596.592 237.021Z" fill="#00DC82"/>
<path d="M601.544 254.66H609.199L612.263 243.181H606.176C605.251 243.181 604.442 243.8 604.2 244.693L601.544 254.66Z" fill="#33E39B"/>
<path opacity="0.75" d="M612.263 243.173L611.015 247.868L603.576 254.66H601.544L602.752 250.124L612.263 243.173Z" fill="#99F1CD"/>
<path d="M610.544 244.501C610.748 243.718 611.455 243.172 612.264 243.173H619.304C620.115 243.171 620.825 243.717 621.032 244.501L623.744 254.66H607.832L610.544 244.501Z" fill="#00DC82"/>
<path d="M623.776 244.877C621.442 245.129 619.543 246.869 619.088 249.172L617.984 254.724H554.784C549.255 254.726 543.953 256.921 540.04 260.827L531.864 269.003H535.064C537.35 269.004 539.543 268.098 541.16 266.483L543.416 264.227C546.423 261.211 550.509 259.518 554.768 259.523H640V243.181C639.816 243.181 639.632 243.181 639.448 243.181L623.776 244.877Z" fill="#003C3C"/>
<path d="M483.656 364.467H494.808L499.272 347.74H490.4C489.053 347.742 487.876 348.647 487.528 349.948L483.656 364.467Z" fill="#33E39B"/>
<path opacity="0.75" d="M499.272 347.74L497.448 354.588L486.616 364.467H483.656L485.416 357.867L499.272 347.74Z" fill="#99F1CD"/>
<path d="M496.8 349.676C497.101 348.536 498.133 347.741 499.312 347.74H509.52C510.701 347.738 511.733 348.534 512.032 349.676L516 364.467H492.8L496.8 349.676Z" fill="#00DC82"/>
<path d="M501.992 368.578C495.314 368.577 489.567 373.298 488.272 379.849L484.272 399.968H528.344V368.578H501.992Z" fill="#002D2D"/>
<path d="M550.4 315.247H563.704L569.016 295.305H558.4C556.792 295.304 555.384 296.384 554.968 297.936L550.4 315.247Z" fill="#33E39B"/>
<path opacity="0.75" d="M568.984 295.305L566.808 303.464L553.896 315.247H550.368L552.472 307.376L568.984 295.305Z" fill="#99F1CD"/>
<path d="M565.992 297.576C566.351 296.219 567.579 295.273 568.984 295.272H581.208C582.614 295.272 583.845 296.217 584.208 297.576L588.912 315.175H561.288L565.992 297.576Z" fill="#00DC82"/>
<path d="M593.464 310.767C592.989 309.275 591.524 308.327 589.968 308.504L580.368 309.552C578.935 309.709 577.769 310.777 577.488 312.191L577.016 314.591H532.736C522.72 314.591 514.1 321.669 512.152 331.494L498.552 399.992H640V314.567H594.696L593.464 310.767Z" fill="#003C3C"/>
<path d="M543.504 335.47L530.704 399.968H640V318.567H564.088C554.072 318.567 545.451 325.645 543.504 335.47Z" fill="#002D2D"/>
<path d="M626.792 334.685C623.792 331.39 620.316 328.561 616.48 326.294C614.175 330.712 612.813 335.561 612.48 340.533C605.768 331.973 597.6 332.021 597.6 332.021C594.695 337.091 593.683 343.026 594.744 348.772C589.313 345.555 583.112 343.872 576.8 343.9C576.376 349.943 577.669 355.982 580.528 361.323C575.611 359.594 570.428 358.744 565.216 358.811C565.503 363.283 566.638 367.659 568.56 371.706C558.408 369.17 548.448 372.074 548.448 372.074C549.987 376.992 552.562 381.523 556 385.361C550.79 385.208 545.612 386.236 540.856 388.369C542.411 392.7 544.864 396.653 548.056 399.968H640V330.533C637.636 328.221 634.684 326.599 631.464 325.846C629.315 328.44 627.725 331.449 626.792 334.685Z" fill="#1B7064"/>
<path d="M634.232 344.165C631.419 347.023 629.16 350.378 627.568 354.06C623.471 350.539 618.591 348.049 613.336 346.796C611.674 349.638 610.781 352.864 610.744 356.156C603.368 352.06 597.248 353.756 597.248 353.756C596.431 356.706 596.184 359.785 596.52 362.827C593.319 362.485 590.085 362.609 586.92 363.195C586.521 366.725 587.105 370.296 588.608 373.514C582.747 373.843 577.011 375.339 571.736 377.914C573.613 381.316 576.047 384.379 578.936 386.977C573.763 388.087 568.92 390.387 564.792 393.697C565.726 396.069 567.152 398.218 568.976 400H640V350.42C638.368 348.085 636.428 345.98 634.232 344.165V344.165Z" fill="#003C3C"/>
<path d="M494.52 265.578C492.187 263.243 489.021 261.931 485.72 261.931H481.232C480.874 260.823 479.964 259.983 478.832 259.715L473.752 258.547C472.877 258.348 471.958 258.512 471.205 258.999C470.452 259.487 469.928 260.259 469.752 261.139L469.6 261.939H465.28L463.2 259.851C461.017 257.674 458.059 256.451 454.976 256.451H401.6C399.026 256.453 396.558 257.474 394.736 259.291L391.824 262.203C390.944 263.11 390.436 264.315 390.4 265.578H391.152C393.791 265.579 396.322 264.528 398.184 262.659C399.105 261.74 400.354 261.224 401.656 261.227H455.008C456.809 261.235 458.534 261.953 459.808 263.227L463.28 266.698H485.76C487.099 266.858 488.387 267.305 489.536 268.01C490.742 268.653 492.089 268.985 493.456 268.978H497.96L494.52 265.578Z" fill="#003C3C"/>
<path d="M460.288 264.379C458.539 261.368 457.612 257.95 457.6 254.468V214.951C457.6 210.951 456.176 206.207 454.544 202.072C452.119 196 447.712 190.926 442.04 187.673L439.04 185.937C436.921 184.714 434.518 184.072 432.072 184.073H428C426.26 184.075 424.701 182.998 424.088 181.369C421.768 175.234 414.944 160.683 402.16 159.835L401.808 158.283C401.808 158.283 407.616 138.869 427.2 138.869C446.784 138.869 456.328 149.972 456.328 158.971C456.328 168.339 451.528 173.522 445.512 176.354C445.281 176.465 445.155 176.719 445.206 176.97C445.257 177.221 445.472 177.406 445.728 177.418C452.384 177.61 462.992 169.306 462.992 158.971C462.992 145.372 450.68 129.83 426.832 129.83C400.248 129.83 389.904 151.428 389.904 159.179V161.419C388.727 161.955 387.859 162.997 387.544 164.251L387 166.427L374.232 179.986L376.896 182.865C378.722 184.843 381.292 185.969 383.984 185.969H385.744C385.768 190.488 384.804 194.957 382.92 199.064C388.792 195.448 392.064 184.953 392.064 184.953L397.704 183.145C397.704 183.145 403.904 197.056 403.904 211.359C403.904 218.503 408.384 226.27 408.384 226.27V235.669C408.382 238.145 408.888 240.596 409.872 242.869L411.16 245.86C412.28 248.454 412.857 251.25 412.856 254.076V264.267H417.144V255.052C417.143 253.443 416.912 251.843 416.456 250.3L415.712 247.804V232.605C415.712 232.605 419.776 236.893 425.16 238.053V247.796L424.36 250.276C423.946 251.591 423.735 252.961 423.736 254.34V264.235H427.848V255.556C427.848 253.756 428.32 251.988 429.216 250.428L431.064 247.228L432.832 251.732C433.432 253.261 433.742 254.889 433.744 256.531V264.235H438.032V251.18C436.412 249.344 435.466 247.01 435.352 244.564V238.861C435.352 238.861 443.56 237.453 447.504 233.501C449.648 238.509 453.272 250.484 453.272 250.484V256.371C453.288 258.269 453.671 260.146 454.4 261.899L457.784 270.138H463.632L460.288 264.379Z" fill="#002D2D"/>
</g>
<defs>
<clipPath id="clip0">
<rect width="640" height="400" fill="white"/>
</clipPath>
</defs>
</svg>
