<svg width="640" height="400" viewBox="0 0 640 400" fill="none" xmlns="http://www.w3.org/2000/svg">
<g clip-path="url(#clip0)">
<path d="M0 -3.80065e-05V399.944H639.96V0.00010123H323.3C266.139 -0.00130458 93.0072 0 0 -3.80065e-05Z" fill="#BBEDE1"/>
<path d="M221.298 34.6311C217.586 34.6342 213.877 34.4366 210.186 34.0392L202.611 24.0406C202.433 23.7992 202.151 23.6566 201.851 23.6566C201.551 23.6566 201.269 23.7992 201.091 24.0406L196.435 30.2318C195.147 26.7122 192.875 22.9208 189.02 22.9208C187.554 22.9589 186.144 23.4917 185.02 24.4326C182.527 21.4656 178.848 19.755 174.973 19.7612C173.853 19.7618 172.739 19.8988 171.653 20.1692C161.322 13.2739 155.44 12.057 151.488 13.5111C151.463 13.4909 151.439 13.4708 151.414 13.4506C141.326 17.6981 130.833 20.914 120.096 23.0493L112.737 13.3786C112.557 13.1402 112.276 13 111.977 13C111.678 13 111.397 13.1402 111.217 13.3786L104.361 22.4653C103.082 21.0452 101.28 20.2076 99.3698 20.1457C96.21 20.1457 94.1061 22.7053 92.7382 25.5689H92.6422C82.3297 25.5689 74.1829 35.8049 64.0712 48.5098C55.2717 59.566 44.984 72.492 30.486 82.169C29.4001 81.8986 28.2853 81.7616 27.1662 81.761C23.2908 81.7548 19.6117 83.4654 17.1188 86.4324C15.9944 85.4915 14.5848 84.9587 13.1191 84.9206C9.26333 84.9206 6.99149 88.7121 5.70356 92.2316L1.04787 86.0404C0.869956 85.799 0.587845 85.6564 0.287895 85.6564C-0.0120548 85.6564 -0.294136 85.799 -0.472052 86.0404L0.000123739 101C-3.69027 101.397 0.287914 131.5 -0.472057 142.5C0.287894 188.5 1.04783 180 -0.472031 234C-0.472083 276 -0.472083 278 -0.472083 295.5L0.000122666 380.252V400L24.4162 390.126L192.015 397L202.139 318.252L221.662 310.356H602.898C582.356 310.356 549.467 270.293 513.846 226.902C471.773 175.652 425.889 119.759 392.04 119.759C388.328 119.762 384.619 119.564 380.928 119.167L373.353 109.168C373.175 108.927 372.893 108.784 372.593 108.784C372.293 108.784 372.011 108.927 371.833 109.168L367.177 115.36C365.889 111.84 363.617 108.049 359.762 108.049C358.296 108.087 356.886 108.619 355.762 109.56C353.269 106.593 349.59 104.883 345.715 104.889C344.595 104.89 343.481 105.027 342.395 105.297C327.897 95.6199 317.609 82.694 308.81 71.6377C298.698 58.9328 290.551 48.6968 280.239 48.6968H280.143C278.775 45.8332 276.671 43.2736 273.511 43.2736C271.601 43.3355 269.798 44.1731 268.519 45.5933L261.664 36.5065C261.484 36.2681 261.202 36.1279 260.904 36.1279C260.605 36.1279 260.324 36.2681 260.144 36.5065L252.784 46.1772C252.316 46.0841 251.849 45.989 251.382 45.8919C240.672 38.795 230.537 34.6311 221.298 34.6311Z" fill="#5DBFA5"/>
<path d="M631.609 39.3944C635.065 39.3944 637.801 41.1141 639.96 43.5698V286.76L549.16 286.767L552.635 292.448L4.5836e-05 400L6.58631e-05 102.5C3.06964e-05 96.5 -0.500008 80.5 3.06964e-05 75.1103C3.06964e-05 68.5 -0.185156 59.1831 -0.5 56.5L2.79683 37.2196C4.72471 28.1169 8.21249 28.0369 10.5563 37.0436L16.884 61.4162L22.8196 33.3561C25.4354 20.9739 30.1791 20.8699 33.3629 33.1162L37.0747 47.4182L31.307 51.4176L38.8346 54.2012L44.2582 75.1103L49.5039 42.5C51.4238 33.3893 53.1685 33.4853 55.5043 42.5L60.3052 70.119L62.5049 65.5C66.5052 56 69.1697 61.9933 71.5056 71L73.5845 77.326C74.2524 77.1836 74.9334 77.1112 75.6163 77.11C77.7817 77.1099 79.8849 77.8335 81.5919 79.1657L83.5065 74.5C85.4344 65.3893 90.6714 65.4853 93.0073 74.5L98.7269 94.5796H99.3188C103.311 94.5461 107.152 96.1065 109.99 98.915C112.174 96.3633 119.474 84.5 123.01 84.5C129.473 84.5 128.701 100.587 130.773 106.178C138.635 108.064 146.461 110.644 154.178 113.666C162.74 96.3977 176.357 94.4827 176.357 94.4827C181.173 96.6584 184.149 102.482 185.852 107.281C187.787 104.885 190.685 103.47 193.764 103.417C200.268 103.417 204.251 109.465 206.563 115.064C208.491 112.681 211.378 111.277 214.443 111.232C220.418 111.232 224.25 116.384 226.65 121.583C247.648 121.583 270.683 129.818 292.662 138.353C294.319 131.311 296.988 130.384 299.142 135.61C301.108 133.538 303.586 132.141 306.693 132.141C310.949 132.141 314.132 134.757 316.468 138.141L317.724 133.341C320.06 124.334 323.556 124.414 325.476 133.517L328.307 146.891L330.147 139.804C332.491 130.79 335.979 130.87 337.907 139.98L339.747 148.603C341.593 146.798 344.068 145.78 346.65 145.763C352.842 145.763 356.754 151.291 359.098 156.674C372.551 155.136 390.549 145.27 411.113 134C434.177 121.358 460.466 106.949 487.186 100.538C489.257 94.9466 492.993 88.9154 499.457 88.9154C502.993 88.9154 505.785 90.7232 507.968 93.2748C510.806 90.4664 514.647 88.9059 518.64 88.9394H519.232L526.207 62.0792C528.543 53.0645 532.039 53.1444 533.967 62.2552L536.367 73.5256C538.074 72.1934 540.177 71.4698 542.342 71.4699C543.025 71.471 543.706 71.5434 544.374 71.6859L548.302 56.576C550.638 47.5692 554.134 47.6492 556.054 56.7519L557.653 64.4789L561.653 49.169C563.989 40.1543 567.485 40.2342 569.405 49.345L573.7 69.4702L579.124 48.5611L586.652 45.7775L580.884 41.778L584.596 27.476C587.78 15.2298 592.523 15.3337 595.139 27.716L601.075 55.7761L607.402 31.4035C609.746 22.3967 613.234 22.4767 615.162 31.5795L619.274 51.1767C621.345 45.5375 625.089 39.3944 631.609 39.3944Z" fill="#1B7064"/>
<path fill-rule="evenodd" clip-rule="evenodd" d="M448.9 262.867C453.091 258.536 458.872 256.108 464.899 256.148C487.489 256.148 493.945 286.808 493.945 286.808H241.409C241.409 286.808 244.441 253.749 256.904 239.943H254.6L254.912 238.743C245.065 238.687 238.449 234.431 238.449 228.728C238.449 224.457 241.217 220.993 247.048 219.505C240.985 217.674 237.449 213.914 237.449 207.843C237.449 201.956 245.177 197.756 255.936 197.756C256.121 197.756 256.3 197.769 256.478 197.781C256.654 197.793 256.829 197.804 257.008 197.804C257.004 197.762 257.004 197.719 257.008 197.676C256.704 192.653 258.368 188.326 268.207 187.574L269.967 180.791C273.455 167.353 278.663 167.449 281.534 181.047L283.302 189.406C287.958 191.213 291.342 194.381 291.622 199.332C291.646 199.577 291.646 199.823 291.622 200.068C295.163 200.355 298.656 201.078 302.021 202.22C305.261 200.604 309.653 199.66 314.74 199.66C314.921 199.66 315.1 199.672 315.278 199.684C315.454 199.696 315.629 199.708 315.804 199.708V199.58C315.508 194.453 317.236 190.03 327.667 189.43C338.099 188.83 349.89 191.805 350.434 201.236C350.454 201.481 350.454 201.727 350.434 201.972C357.058 202.428 366.393 205.251 370.481 209.515C373.053 208.683 375.724 208.196 378.424 208.067C386.592 207.595 390.616 213.602 391.175 220.513C391.966 220.346 392.768 220.242 393.575 220.201C401.151 219.761 409.79 222.921 410.334 232.352V232.688C420.87 232.848 426.637 240.119 426.637 244.438C426.751 248.268 424.722 251.843 421.374 253.709C423.892 254.381 426.334 255.312 428.661 256.484C429.956 256.26 431.267 256.147 432.581 256.148C438.693 256.155 444.555 258.569 448.9 262.867ZM282.91 242.11C283.462 242.822 283.99 243.55 284.51 244.35C286.81 243.511 289.246 243.109 291.693 243.166C291.15 242.163 290.759 241.084 290.533 239.966H284.062L282.91 242.11ZM302.709 257.292C304.829 256.164 306.029 254.532 306.029 252.428C306.027 251.205 305.754 249.997 305.229 248.893C306.513 248.706 307.779 248.409 309.012 248.005L309.484 260.867C307.435 259.315 305.147 258.107 302.709 257.292ZM317.916 270.434C319.86 265.907 322.98 261.899 327.979 260.668L328.219 257.692L319.42 240.294C318.22 240.454 316.94 240.55 315.588 240.598C315.592 240.654 315.592 240.71 315.588 240.766C315.756 243.662 313.916 245.774 311.061 247.165L312.076 263.059C314.327 265.26 316.29 267.739 317.916 270.434ZM331.251 253.892L322.996 239.598C325.899 238.798 328.083 237.542 329.315 235.854C330.148 236.07 331.006 236.18 331.867 236.182H332.474L333.01 250.7L331.251 253.892ZM338.019 235.367C336.9 235.694 335.754 235.919 334.595 236.039L335.291 246.573L340.09 237.726C339.225 237.112 338.516 236.304 338.019 235.367ZM351.506 249.997C343.922 250.437 342.707 254.796 343.019 259.947C343.104 261.179 343.405 262.387 343.906 263.515C343.475 263.963 343.067 264.427 342.667 264.907C340.631 263.084 338.228 261.72 335.619 260.907L335.467 255.756L344.13 239.51C346.02 239.964 347.949 240.232 349.89 240.31C351.802 243.118 355.13 245.325 359.49 246.709L361.385 251.789C358.288 250.374 354.886 249.758 351.49 249.997H351.506ZM367.084 257.105L367.085 257.105C367.445 257.213 367.809 257.322 368.16 257.444L370.112 248.317C367.394 248.272 364.687 247.953 362.033 247.365L364.737 254.06C365.642 254.931 366.393 255.948 366.961 257.068L367.084 257.105ZM371.257 253.82L371.259 253.807C372.94 252.629 374.804 251.736 376.776 251.164C375.356 250.402 374.055 249.438 372.913 248.301H372.289L371.259 253.807L371.241 253.82H371.257ZM384.702 273.688C384.705 273.694 384.709 273.7 384.712 273.705H384.696C384.698 273.7 384.7 273.694 384.702 273.688ZM384.702 273.688C384.719 273.644 384.741 273.601 384.768 273.561H384.64C384.658 273.605 384.679 273.647 384.702 273.688Z" fill="#003C3C"/>
<path d="M637.064 105.001C637.041 107.562 638.091 110.017 639.96 111.768V99.9858C638.188 101.04 637.091 102.94 637.064 105.001Z" fill="#003C3C"/>
<path fill-rule="evenodd" clip-rule="evenodd" d="M621.985 78.5012C621.985 83.2205 624.657 86.1881 629.241 87.7079L628.553 108.505L622.025 102.666C625.244 101.379 627.317 98.2197 627.217 94.7549C627.217 91.2594 622.497 85.3242 613.874 85.3242C605.25 85.3242 599.059 88.6997 599.059 93.4111C599.018 95.0559 599.416 96.6819 600.211 98.1224C598.264 97.35 596.185 96.9616 594.091 96.9786C588.851 96.9786 584.491 98.2264 581.916 100.258V97.6745C582.598 97.7544 583.284 97.7972 583.972 97.8024C592.595 97.8024 598.795 94.4349 598.795 89.7236C598.795 84.1244 595.011 80.9248 588.707 79.813C589.838 78.7544 590.466 77.2659 590.435 75.7175C590.435 73.4379 587.355 69.5664 581.732 69.5664C576.108 69.5664 572.068 71.7661 572.068 74.8377C571.996 77.3158 573.507 79.566 575.828 80.4369C574.238 81.0822 572.884 82.1987 571.948 83.6364C570.462 82.8812 568.816 82.4944 567.149 82.5086C561.549 82.5086 557.485 84.7083 557.485 87.7799C557.485 92.5232 561.613 94.5789 568.117 94.5789C568.81 94.5811 569.503 94.5303 570.188 94.4269L576.1 112.232L575.796 121.375C573.583 120.55 571.239 120.13 568.876 120.135C562.845 120.135 555.221 123.015 555.221 127.454C555.226 127.788 555.247 128.122 555.285 128.454C547.286 129.542 543.518 133.525 543.518 138.629C543.52 140.127 543.965 141.591 544.798 142.836C541.564 143.106 538.38 143.811 535.335 144.932L530.367 121.663C527.495 108.065 522.287 107.961 518.8 121.399L514.728 137.093L521.055 141.484L512.768 144.532L511.112 150.931L507.112 131.934C504.232 118.336 499.033 118.232 495.537 131.67L480.178 190.821H519.568L517.392 180.559H542.822L541.518 174.376C544.902 175.093 548.354 175.444 551.814 175.424C554.157 175.424 556.381 175.32 558.477 175.128L573.196 199.036L570.3 286.84H583.46L582.972 227.968L591.859 221.137C595.142 221.803 598.485 222.13 601.834 222.113C612.37 222.113 620.537 220.105 625.033 216.266L623.673 257.42C621.204 256.548 618.604 256.107 615.986 256.116C593.387 256.116 588.547 286.784 588.547 286.784H639.96V239.367C638.317 240.161 636.801 241.196 635.464 242.438L635.344 228.04L639.96 224.449V220.225L635.312 223.625L635.264 217.93C636.764 218.751 638.336 219.434 639.96 219.969V190.949C638.261 191.432 636.618 192.092 635.056 192.917L635 186.086L639.96 183.039V177.663L634.952 180.431V175.072C636.58 175.749 638.271 176.263 640 176.607V152.283C638.213 152.562 636.46 153.026 634.768 153.667L634.712 146.9C637.824 145.54 639.712 143.5 640 140.804V139.181C639.719 135.644 637.686 132.482 634.584 130.758L634.496 120.751L639.96 116.784V112.784L634.424 116.4L634.256 95.8907C636.054 96.6896 637.993 97.1246 639.96 97.1705V70.7102C638.905 70.5145 637.833 70.4181 636.76 70.4223C628.185 70.3903 621.985 73.7898 621.985 78.5012ZM573.451 191.285L562.549 174.552C567.42 173.712 571.348 172.256 574.147 170.192L573.451 191.285ZM571.34 147.715C572.615 148.583 573.773 149.61 574.788 150.771L574.948 145.963C573.834 146.714 572.619 147.304 571.34 147.715ZM576.316 104.538L572.428 93.8192C572.652 93.7211 572.871 93.6116 573.084 93.4912C574.1 94.5462 575.284 95.4248 576.588 96.0908L576.316 104.538ZM582.892 217.914L582.94 223.609L587.803 220.057C586.102 219.499 584.458 218.781 582.892 217.914ZM582.684 192.901L582.628 186.07L582.78 185.974C585.357 187.832 588.244 189.216 591.306 190.062C588.299 190.55 585.388 191.514 582.684 192.917V192.901ZM617.098 190.517L625.68 195.637L625.968 186.982C623.252 188.692 620.246 189.891 617.098 190.517ZM626.801 161.57C626.537 162.548 626.403 163.556 626.401 164.569C626.4 165.239 626.472 165.907 626.617 166.561C624.033 163.849 620.169 161.594 614.682 160.266C613.082 157.386 610.138 154.843 605.33 153.307C606.885 152.371 607.829 150.682 607.81 148.868C607.81 145.388 603.746 142.788 597.707 142.788C591.667 142.788 587.731 144.572 587.731 147.892C587.722 149.423 588.293 150.901 589.331 152.027C586.954 152.253 584.617 152.791 582.38 153.627L582.292 143.004L591.323 136.549C594.32 137.689 597.51 138.232 600.714 138.149C602.284 138.157 603.852 138.037 605.402 137.789V138.397C605.402 144.404 612.41 148.884 622.833 148.884C624.433 148.884 625.889 148.804 627.289 148.668L626.801 161.57ZM621.129 119.735C623.56 119.672 625.967 120.222 628.129 121.335L628.457 112.273L619.121 103.474C617.888 103.689 616.638 103.794 615.386 103.786C612.197 103.869 609.016 103.415 605.978 102.442C606.854 103.568 607.372 104.93 607.466 106.353C607.466 109.833 605.578 115.432 595.611 115.432C589.491 115.432 584.771 114.248 582.012 111.681L582.236 138.677L588.243 134.749C585.973 132.991 584.659 130.27 584.691 127.398C584.691 122.367 590.667 119.679 599.811 119.679C604.882 119.679 609.026 120.903 611.714 122.879C613.002 120.823 616.426 119.735 621.129 119.735Z" fill="#003C3C"/>
<path fill-rule="evenodd" clip-rule="evenodd" d="M-1.95942 140.032C-1.95942 143.746 -4.63528 146.082 -9.22593 147.278L-8.53692 163.646L-1.99947 159.05C-5.22302 158.037 -7.29932 155.551 -7.199 152.824C-7.199 150.073 -2.47215 145.402 6.16436 145.402C14.8009 145.402 21.0018 148.058 21.0018 151.766C21.0425 153.061 20.6443 154.341 19.8482 155.474C21.7981 154.866 23.8793 154.561 25.9771 154.574C31.2247 154.574 35.591 155.556 38.1707 157.155V155.122C37.4872 155.185 36.7999 155.218 36.1117 155.223C27.4752 155.223 21.2662 152.572 21.2662 148.864C21.2662 144.457 25.0557 141.939 31.3689 141.064C30.2367 140.231 29.6077 139.06 29.6384 137.841C29.6384 136.047 32.7228 133 38.355 133C43.9871 133 48.033 134.731 48.033 137.149C48.1056 139.099 46.5924 140.87 44.2675 141.555C45.8596 142.063 47.2156 142.942 48.1532 144.073C49.6418 143.479 51.2904 143.175 52.9601 143.186C58.5683 143.186 62.6382 144.917 62.6382 147.334C62.6382 151.068 58.5042 152.685 51.9907 152.685C51.2962 152.687 50.6025 152.647 49.9157 152.566L43.9951 166.579L44.2996 173.775C46.5163 173.125 48.8638 172.795 51.2296 172.799C57.2704 172.799 64.9054 175.065 64.9054 178.559C64.9008 178.822 64.8794 179.085 64.8413 179.346C72.8529 180.202 76.6264 183.337 76.6264 187.354C76.6243 188.533 76.1783 189.685 75.3446 190.665C78.5838 190.878 81.7718 191.432 84.8223 192.315L88.1703 194.505C90.1734 196.91 88.6711 194.388 93.1782 202.258C93.1782 202.258 95.0437 208.321 93.1782 210.522C90.4354 213.759 81.6599 216.312 81.6599 216.312L64.9054 239.642L61.0048 245L56.0044 251.5L48.0828 263L48.2087 266L48.5235 273.5L48.9432 283.5L47.5948 251.371L73.9598 216.079L78.6293 215.488C75.2399 216.052 71.783 216.329 68.3184 216.312C65.971 216.312 63.7438 216.231 61.6447 216.079L46.9034 234.896L49.8036 304H36.6245L37.1132 257.666L28.2123 252.29C24.9244 252.814 21.5767 253.072 18.2218 253.058C7.67053 253.058 -0.509312 251.478 -5.01182 248.456L-0.500013 266C1.97259 265.314 5.50045 264.203 9.50076 266.637C33.3337 281.137 24.4548 286 24.4548 286H-19.9615V266.637C-18.3158 267.262 -16.7982 268.077 -15.459 269.055L-15.3388 257.723L-19.9615 254.896V251.573L-15.3067 254.248L-15.2587 249.766C-16.7608 250.412 -18.3349 250.95 -19.9615 251.371V228.532C-18.2601 228.912 -16.614 229.431 -15.0504 230.08L-14.9943 224.704L-19.9615 222.306V218.075L-14.9462 220.253V216.035C-16.5764 216.568 -18.2698 216.973 -20.0015 217.244V198.1C-18.2118 198.32 -16.4558 198.685 -14.7619 199.189L-14.7059 193.863C-17.8224 192.793 -19.7131 191.188 -20.0015 189.066V187.788C-19.7197 185.004 -17.6838 182.516 -14.5777 181.159L-14.4896 173.284L-19.9615 170.161V167.014L-14.4174 169.859L-14.2492 153.718C-16.05 154.347 -17.9914 154.689 -19.9615 154.725V133.9C-18.9046 133.746 -17.8317 133.67 -16.7568 133.674C-8.1684 133.648 -1.95942 136.324 -1.95942 140.032ZM46.647 228.796L57.5668 215.626C52.6877 214.965 48.754 213.819 45.95 212.195L46.647 228.796ZM48.762 194.505C47.4857 195.188 46.3254 195.996 45.309 196.91L45.1488 193.126C46.2647 193.717 47.4811 194.181 48.762 194.505ZM43.7788 160.523L47.6725 152.088C47.448 152.01 47.2288 151.924 47.0155 151.829C45.9985 152.66 44.8125 153.351 43.5064 153.875L43.7788 160.523ZM37.1933 249.753L37.1452 254.235L32.2742 251.44C33.9777 251.001 35.6247 250.436 37.1933 249.753ZM37.4016 230.068L37.4576 224.691L37.3054 224.616C34.7242 226.078 31.8322 227.167 28.765 227.833C31.7774 228.217 34.6926 228.976 37.4016 230.08V230.068ZM5.35518 227.833L-5.6608 232.221L-5.94923 225.409C-3.22875 226.755 2.20213 227.34 5.35518 227.833ZM-6.7824 205.409C-6.51825 206.179 -6.38357 206.973 -6.38181 207.77C-6.3807 208.297 -6.45323 208.823 -6.59813 209.337C-4.01039 207.203 -0.140776 205.428 5.35518 204.383C6.9575 202.117 9.90577 200.115 14.7207 198.906C13.1633 198.17 12.2183 196.84 12.2371 195.412C12.2371 192.674 16.307 190.628 22.3558 190.628C28.4046 190.628 32.3463 192.032 32.3463 194.644C32.3559 195.849 31.7832 197.012 30.7439 197.899C33.1249 198.076 35.4657 198.5 37.706 199.158L37.7942 190.798L28.7491 185.717C25.748 186.614 22.553 187.042 19.3434 186.976C17.7713 186.983 16.2011 186.888 14.6486 186.693V187.172C14.6486 191.899 7.63048 195.425 -2.80865 195.425C-4.41097 195.425 -5.86908 195.362 -7.2711 195.255L-6.7824 205.409ZM-1.10217 172.484C-3.53641 172.434 -5.94744 172.867 -8.11231 173.743L-8.44079 166.611L0.908741 159.686C2.14401 159.856 3.39618 159.938 4.65017 159.931C7.84402 159.997 11.0292 159.64 14.0718 158.874C13.1951 159.76 12.6761 160.832 12.5817 161.952C12.5817 164.691 14.4724 169.097 24.4548 169.097C30.5837 169.097 35.3106 168.166 38.0746 166.145L37.8503 187.392L31.8335 184.301C34.107 182.916 35.4236 180.775 35.3907 178.515C35.3907 174.556 29.406 172.44 20.2488 172.44C15.1694 172.44 11.0194 173.403 8.32749 174.958C7.03763 173.341 3.60866 172.484 -1.10217 172.484Z" fill="#003C3C"/>
<path fill-rule="evenodd" clip-rule="evenodd" d="M177.405 255.364H154.39C159.774 269.994 161.31 286.72 161.31 286.72H65.3719C65.3719 286.72 65.8465 277.81 68.5054 273C71.327 267.896 72.2608 275.636 76.506 277.5C80.7512 279.364 83.726 267.296 84.9067 270.306C86.5352 267.612 88.4973 265.134 90.7464 262.931L91.7463 247.07C90.8228 246.635 89.9683 246.066 89.2105 245.382C89.2105 245.382 83.1524 229.301 89.2105 223C93.5806 218.455 104.721 218.514 104.721 218.514H106.153C108.375 218.472 110.59 218.771 112.721 219.401C113.433 214.986 119.225 208.523 129.288 208.523C139.647 208.523 147.183 212.434 147.727 217.978L153.374 196.205C156.862 182.775 162.07 182.871 164.942 196.469L177.405 255.364ZM93.7942 247.901L93.3222 260.763C95.3711 259.197 97.6663 257.984 100.114 257.172C97.9939 256.036 96.794 254.404 96.794 252.308C96.7953 251.082 97.0685 249.872 97.5939 248.765C96.3055 248.583 95.0345 248.294 93.7942 247.901ZM118.313 244.246L118.28 244.234L116.041 231.576C114.84 232.493 113.486 233.189 112.041 233.631C112.462 235.213 112.603 236.856 112.457 238.487C112.348 240.074 111.889 241.617 111.113 243.006C113.558 242.966 115.988 243.382 118.28 244.234L118.281 244.238L118.313 244.246ZM117.889 229.616L120.289 241.526V241.566C123.408 237.655 127.088 234.895 131.432 234.111C130.919 233.337 130.641 232.432 130.632 231.503C129.576 231.599 128.528 231.599 127.432 231.599C123.176 231.599 120.097 230.783 117.889 229.536V229.616Z" fill="#003C3C"/>
<path d="M443.324 146.891C440.452 133.293 435.245 133.189 431.757 146.627L416.398 205.819H455.779L443.324 146.891Z" fill="#003C3C"/>
<path d="M0 399.944H639.96V283.088H0V399.944Z" fill="#002D2D"/>
<path d="M393.015 161.337H612.458V286.816H390.624V163.729C390.628 162.41 391.696 161.342 393.015 161.337V161.337Z" fill="#33E39B"/>
<path d="M609.386 161.337H615.521C616.846 161.337 617.921 162.412 617.921 163.737V286.816H606.986V163.737C606.986 162.412 608.06 161.337 609.386 161.337Z" fill="#00DB81"/>
<rect x="401.839" y="174.016" width="193.932" height="23.7327" fill="#00DB81"/>
<rect x="401.839" y="210.834" width="63.86" height="9.93462" fill="#66E9B3"/>
<rect x="401.839" y="229.736" width="44.4932" height="9.93462" fill="#66E9B3"/>
<rect x="401.839" y="248.629" width="25.8304" height="9.93462" fill="#00DB81"/>
<rect x="433.413" y="248.629" width="25.8304" height="9.93462" fill="#00DB81"/>
<rect x="518.32" y="210.834" width="77.4512" height="63.2952" fill="#66E9B3"/>
<rect x="528.111" y="217.777" width="57.8683" height="5.13528" fill="#00DB81"/>
<rect x="528.111" y="228.848" width="57.8683" height="5.13528" fill="#00DB81"/>
<rect x="528.111" y="239.918" width="57.8683" height="5.13528" fill="#00DB81"/>
<rect x="528.111" y="250.981" width="57.8683" height="5.13527" fill="#00DB81"/>
<rect x="528.111" y="262.051" width="57.8683" height="5.13528" fill="#00DB81"/>
<g style="mix-blend-mode:screen" opacity="0.33">
<path d="M393.135 161.337H518.312L455.788 286.768H390.736V163.737C390.736 162.412 391.81 161.337 393.135 161.337Z" fill="#64E5B3"/>
</g>
<path d="M464.867 288.664H420.598L431.053 279.409C432.431 278.185 434.21 277.511 436.053 277.513H439.749C441.665 277.514 443.51 278.243 444.908 279.553L446.508 281.049C447.906 282.36 449.751 283.089 451.668 283.088H455.972C457.889 283.086 459.734 283.815 461.131 285.128L464.867 288.664Z" fill="#002D2D"/>
<path d="M386.488 287.896H373.193L367.873 267.962H378.448C380.053 267.965 381.457 269.044 381.872 270.594L386.488 287.896Z" fill="#33E39B"/>
<path opacity="0.75" d="M382.032 271.202L370.049 276.113L372.217 287.895H378.176L383.64 277.233L382.032 271.202Z" fill="#99F1CD"/>
<path d="M370.873 270.258C370.51 268.899 369.279 267.954 367.873 267.955H355.65C354.245 267.955 353.017 268.901 352.658 270.258L347.978 287.896H375.577L370.873 270.258Z" fill="#00DC82"/>
<path d="M381.128 282.2L390.728 281.153C392.282 280.982 393.743 281.928 394.223 283.416L395.935 288.696H377.488L378.248 284.84C378.532 283.427 379.696 282.36 381.128 282.2Z" fill="#002D2D"/>
<path d="M351.314 294.247H315.692L321.148 286.032C322.639 283.786 325.155 282.435 327.852 282.433C329.999 282.426 332.055 281.562 333.563 280.033L335.635 277.937C337.146 276.408 339.205 275.544 341.355 275.538H344.202C346.589 275.54 348.851 276.6 350.378 278.433L353.842 282.585C355.073 284.062 356.793 285.049 358.69 285.368L362.081 285.936C364.454 286.326 366.524 287.763 367.721 289.848L370.241 294.207L351.314 294.247Z" fill="#002D2D"/>
<path d="M636.016 274.266C637.774 272.655 639.036 270.577 639.656 268.275C637.047 267.722 634.336 267.905 631.825 268.803C632.573 266.675 632.649 264.368 632.041 262.195C630.184 262.566 628.442 263.375 626.961 264.555C626.758 262.84 626.038 261.228 624.897 259.932C623.238 260.409 621.825 261.502 620.945 262.987C620.515 261.138 619.479 259.485 618.001 258.292C618.001 258.292 614.634 259.588 614.002 264.467C613.11 262.639 611.79 261.053 610.154 259.844C609.223 261.281 608.537 262.862 608.122 264.523C606.892 262.992 605.281 261.811 603.45 261.1C602.453 263.184 602.076 265.51 602.362 267.803C599.451 264.563 596.203 265.003 596.203 265.003C595.864 266.489 595.815 268.026 596.059 269.53C593.878 268.711 591.493 268.61 589.251 269.242C589.759 271.697 591.017 273.933 592.851 275.642C588.099 275.01 585.867 277.793 585.867 277.793C586.681 279.176 587.771 280.376 589.067 281.321L588.467 281.433C587.698 281.019 586.865 280.736 586.003 280.593L582.612 280.025C580.715 279.706 578.995 278.719 577.764 277.241L574.364 273.106C572.836 271.275 570.573 270.217 568.189 270.218H565.333C563.185 270.225 561.129 271.089 559.621 272.618L557.549 274.714C556.041 276.242 553.985 277.106 551.838 277.113C549.14 277.104 546.62 278.454 545.134 280.705L539.67 288.92H588.627C589.437 289.147 590.274 289.26 591.115 289.256H635.48C635.064 288.685 634.602 288.15 634.096 287.656C634.36 287.752 634.64 287.848 634.896 287.928C636.55 288.43 638.314 288.443 639.976 287.968V283.001C639.208 282.273 638.324 281.678 637.36 281.241C638.275 280.966 639.153 280.582 639.976 280.097V274.882C638.701 274.451 637.362 274.243 636.016 274.266Z" fill="#002D2D"/>
<path d="M86.346 275.974C88.1037 274.363 89.3662 272.285 89.9857 269.983C87.3767 269.43 84.6655 269.613 82.1542 270.511C82.9031 268.383 82.9785 266.076 82.3702 263.903C80.5133 264.275 78.7718 265.083 77.2905 266.263C77.0881 264.548 76.3682 262.936 75.2267 261.64C73.5679 262.117 72.1543 263.21 71.2749 264.695C70.8444 262.846 69.8083 261.193 68.3311 260C68.3311 260 64.9633 261.296 64.3314 266.175C63.4393 264.347 62.1194 262.761 60.4836 261.552C59.553 262.989 58.8665 264.57 58.4517 266.231C57.2216 264.7 55.6105 263.519 53.78 262.808C52.7829 264.892 52.4053 267.218 52.6921 269.511C49.7803 266.271 46.5325 266.711 46.5325 266.711C46.1935 268.197 46.1446 269.734 46.3885 271.238C44.2081 270.419 41.8227 270.318 39.5809 270.95C40.0892 273.405 41.347 275.641 43.1807 277.35C38.429 276.718 36.1971 279.501 36.1971 279.501C37.0112 280.884 38.1002 282.084 39.3969 283.029L38.7969 283.141C38.0274 282.727 37.195 282.444 36.3331 282.301L32.9413 281.733C31.0447 281.414 29.325 280.427 28.0936 278.949L24.6938 274.814C23.1655 272.983 20.9032 271.925 18.5182 271.926H15.6624C13.5147 271.933 11.4586 272.797 9.95075 274.326L7.87888 276.422C6.37053 277.95 4.31473 278.814 2.16724 278.821C-0.529913 278.812 -3.05022 280.162 -4.53634 282.413L-10 290.628H38.9569C39.7666 290.855 40.6039 290.968 41.4448 290.964H85.81C85.3941 290.393 84.9312 289.858 84.4261 289.364C84.6901 289.46 84.9701 289.556 85.2261 289.636C86.8802 290.138 88.6439 290.151 90.3057 289.676V284.709C89.5374 283.981 88.6534 283.386 87.6899 282.949C88.6046 282.674 89.4829 282.29 90.3057 281.805L94.5081 278.5L90.3057 276.59C89.0309 276.159 87.6915 275.951 86.346 275.974Z" fill="#002D2D"/>
<path d="M572.804 308.549H586.107L591.419 288.607H580.852C579.244 288.607 577.836 289.686 577.42 291.239L572.804 308.549Z" fill="#33E39B"/>
<path opacity="0.75" d="M591.427 288.607L589.251 296.766L576.332 308.549H572.804L574.908 300.678L591.427 288.607Z" fill="#99F1CD"/>
<path d="M588.427 290.911C588.787 289.554 590.015 288.608 591.419 288.607H603.642C605.05 288.604 606.282 289.551 606.642 290.911L611.346 308.549H583.724L588.427 290.911Z" fill="#00DC82"/>
<path d="M597.939 311.445H553.669L564.133 302.182C565.508 300.959 567.284 300.285 569.124 300.286H572.82C574.737 300.284 576.583 301.013 577.98 302.326L579.58 303.822C580.977 305.134 582.822 305.864 584.739 305.861H589.027C590.945 305.863 592.79 306.596 594.187 307.909L597.939 311.445Z" fill="#002D2D"/>
<path d="M311.301 317.899H275.679L281.134 309.676C282.627 307.432 285.143 306.084 287.838 306.085C289.987 306.085 292.045 305.22 293.55 303.685L295.629 301.59C297.134 300.055 299.192 299.19 301.341 299.19H304.189C306.586 299.194 308.856 300.267 310.381 302.118L313.844 306.269C315.077 307.748 316.8 308.736 318.7 309.053L322.084 309.62C324.454 310.016 326.523 311.451 327.724 313.532L330.243 317.899H311.301Z" fill="#002D2D"/>
<path d="M256.616 288.712C258.081 291.431 260.969 293.076 264.055 292.951H308.421C308.008 292.378 307.545 291.842 307.037 291.351C307.309 291.447 307.581 291.535 307.837 291.615C312.852 292.999 315.516 290.231 315.516 290.231C314.429 287.926 312.589 286.059 310.301 284.936C312.888 284.143 315.153 282.542 316.764 280.369C316.764 280.369 313.116 277.833 308.973 278.025C310.73 276.412 311.994 274.335 312.62 272.034C310.011 271.481 307.3 271.664 304.789 272.562C305.533 270.433 305.606 268.126 304.997 265.955C303.142 266.325 301.403 267.134 299.925 268.314C299.717 266.597 298.995 264.983 297.853 263.683C296.196 264.167 294.784 265.262 293.902 266.747C293.474 264.896 292.437 263.242 290.958 262.051C290.958 262.051 287.59 263.347 286.958 268.226C286.069 266.397 284.748 264.81 283.11 263.603C282.18 265.04 281.493 266.621 281.078 268.282C279.852 266.745 278.24 265.561 276.407 264.851C275.429 266.941 275.065 269.265 275.359 271.554C272.447 268.354 269.199 268.754 269.199 268.754C268.86 270.243 268.811 271.783 269.055 273.29C266.875 272.47 264.489 272.369 262.248 273.002C262.754 275.457 264.012 277.693 265.847 279.401C261.104 278.777 258.864 281.561 258.864 281.561C259.679 282.94 260.768 284.138 262.064 285.08C259.762 285.325 257.727 286.682 256.616 288.712Z" fill="#002D2D"/>
<path d="M436.277 359.662C422.982 359.662 413.078 371.052 405.879 385.298C398.535 361.166 387.48 334.977 371.569 319.707C370.957 319.148 370.02 319.148 369.409 319.707L352.05 335.081L361.577 313.732C361.909 312.987 361.626 312.111 360.921 311.7C355.177 308.414 348.677 306.677 342.059 306.661C331.331 306.661 321.94 311.149 313.748 318.484C295.805 299.054 273.423 285.216 246.041 285.216C222.722 285.216 204.739 295.255 190.844 310.237C174.429 295.255 154.734 285.216 131.416 285.216C118.555 285.092 105.905 288.485 94.8341 295.031L102.298 317.556L87.7705 299.774C68.6597 314.172 55.8205 337.417 47.237 360.926C43.2373 353.639 29.5023 326.5 0 331.5V399.944H472.522C465.427 379.747 453.932 359.662 436.277 359.662Z" fill="#003C3C"/>
<path d="M291.638 343.2L277.111 360.981L284.59 338.473C273.51 331.93 260.852 328.539 247.985 328.666C216.219 328.666 191.188 347.303 171.989 371.676C162.758 361.277 152.526 352.479 141.455 346.991L134.832 367.405L134.544 344.064C124.334 340.328 113.197 339.958 102.762 343.008C78.0831 350.119 63.4361 372.908 54.8606 399.944H330.507C321.956 377.971 309.581 356.694 291.638 343.2Z" fill="#002D2D"/>
<path d="M355.618 309.1C355.618 309.1 354.674 302.285 351.45 300.366C346.554 298.446 335.523 296.23 331.091 296.918C328.869 297.8 326.798 299.026 324.956 300.55C323.394 301.849 322.401 303.705 322.188 305.725L320.476 321.619L320.596 321.931C314.94 326.058 305.757 333.001 297.693 340.12L292.046 278.785C292.046 278.785 253.984 296.622 253.984 329.634C253.984 354.014 266.327 373.915 275.903 385.698C282.958 394.368 294.99 394.752 302.661 386.626C316.948 371.5 328.547 345.423 333.315 333.729C340.923 333.161 350.33 316.883 349.034 307.445L355.618 309.1Z" fill="#A7816D"/>
<path d="M170.205 213.034C170.205 213.034 140.303 232.759 129.408 243.67C124.608 248.469 123.88 263.931 129.408 270.434C136.384 278.649 150.535 281.961 150.535 281.961C150.535 281.961 189.948 273.858 189.948 253.596C189.948 233.335 170.205 213.034 170.205 213.034Z" fill="#FF6446"/>
<path d="M130.832 247.501C124.952 250.821 112.041 265.323 104.049 274.698C99.1775 280.358 98.2281 288.408 101.65 295.047C115.785 322.243 151.551 330.09 151.551 330.09C151.551 330.09 158.526 264.763 130.832 247.501Z" fill="#A7816D"/>
<path d="M272.566 189.125C276.566 193.461 280.789 198.348 277.782 200.788C274.902 203.116 266.383 199.972 266.383 199.972L272.566 189.125Z" fill="#7D6152"/>
<path d="M227.122 172.352C229.802 155.49 245.521 154.018 253.048 155.218C264.071 156.962 276.295 167.392 273.575 184.534C271.91 194.687 269.623 204.729 266.727 214.602C266.198 216.448 264.666 217.835 262.776 218.177C260.403 218.617 257.984 218.757 255.576 218.593L250.952 232.191L207.803 225.352L230.266 186.958C227.114 182.566 226.282 177.687 227.122 172.352Z" fill="#A7816D"/>
<path d="M281.694 168.376C280.446 163.361 277.543 161.361 273.583 161.177C277.927 157.698 280.086 153.339 277.535 148.475C274.159 142.028 268.695 142.732 264.119 145.132L263.16 145.636C264.871 141.804 263.655 138.781 260.952 136.237C257.192 132.685 251.952 132.797 247.473 137.541C246.873 138.181 246.345 138.813 245.873 139.453C243.801 134.957 240.273 131.27 235.537 132.429C230.49 133.677 226.738 140.3 228.738 148.187C228.923 148.964 229.172 149.723 229.482 150.459L229.106 150.539C228.959 149.392 228.748 148.255 228.474 147.131C226.762 140.244 223.21 135.485 217.018 137.021C210.827 138.557 209.723 143.692 211.611 151.315C211.779 151.971 211.963 152.595 212.155 153.195L211.107 153.091C201.739 152.395 197.972 157.498 197.508 163.721C197.1 169.168 201.443 172.696 207.051 173.84C201.451 176.615 197.396 181.975 198.78 187.55C200.163 193.125 205.667 194.237 211.707 193.493C208.267 196.477 207.011 199.716 208.427 202.468C210.731 206.963 215.331 209.387 222.61 205.667L223.466 205.203C223.55 205.934 223.684 206.658 223.866 207.371C225.346 213.37 231.186 215.274 236.865 213.866C242.081 212.578 245.713 209.595 244.777 203.06C249.24 207.859 254.104 206.803 257.768 204.123C261.808 201.172 261.96 195.589 258.312 190.605C258.016 190.197 257.696 189.805 257.368 189.406C262.304 193.221 267.415 193.117 270.279 190.205C272.679 187.806 272.615 184.566 270.423 181.039C271.079 180.943 271.743 180.815 272.407 180.655C278.943 179.007 283.486 175.615 281.694 168.376Z" fill="#002D2D"/>
<path d="M299.621 332.209L295.726 290.159C294.898 281.173 291.777 272.55 286.662 265.115C277.455 251.749 261.024 231.048 241.953 221.201C212.499 206.003 170.205 213.034 170.205 213.034C137.047 247.357 117.017 354.35 117.017 354.35L207.683 376.363C227.01 376.483 232.386 360.733 246.257 336.689C248.017 342.696 249.664 347.415 250.52 349.751C250.675 350.181 250.996 350.531 251.411 350.722C251.827 350.913 252.301 350.929 252.728 350.767L298.597 333.857C299.271 333.601 299.69 332.927 299.621 332.209Z" fill="#FF6446"/>
<path d="M221.482 373.236C205.779 357.286 184.765 348.623 145.103 348.623C130.304 348.623 117.017 354.326 117.017 354.326C117.017 354.326 93.2022 372.26 88.3945 399.92H226.258L223.186 390.665C223.186 390.665 229.666 381.546 221.482 373.236Z" fill="#336363"/>
<path d="M213.427 384.482C210.035 377.379 204.779 374.812 199.708 372.332L201.107 369.46C206.155 371.924 212.443 374.996 216.306 383.099L213.427 384.482Z" fill="#003C3C"/>
<path d="M255.6 218.593L256.784 215.09C258.464 216.37 261.735 217.953 264.575 217.49C263.039 218.985 255.6 218.593 255.6 218.593Z" fill="#003C3C"/>
<path d="M231.642 335.625C231.642 335.625 238.217 337.857 246.105 333.746L249.153 345.832C249.153 345.832 237.953 351.655 226.65 351.655L231.642 335.625Z" fill="#002D2D"/>
<path d="M209.931 364.301C207.939 374.907 162.47 382.314 133.44 376.339C106.897 370.868 102.426 355.118 104.417 344.504C106.409 333.889 131.616 329.73 160.774 335.193C189.932 340.656 211.915 353.694 209.931 364.301Z" fill="#002D2D"/>
<path d="M298.733 361.253L295.534 360.981C296.051 355.588 296.083 350.159 295.63 344.76L298.829 344.432C299.3 350.03 299.268 355.66 298.733 361.253Z" fill="#614B3F"/>
<path d="M271.063 245.149L246.105 273.537L243.473 253.892L271.063 245.149Z" fill="#003C3C"/>
<path d="M246.105 236.183C257.464 230.072 265.375 231.008 268.943 233.991C272.511 236.975 275.847 242.51 276.503 245.534C276.902 247.395 276.791 249.329 276.183 251.133C273.959 248.309 271.063 245.142 271.063 245.142C258.12 249.941 247.777 259.172 247.777 259.172L246.105 236.183Z" fill="#336363"/>
<path d="M292.214 336.185L257.336 356.462L256.512 349.351L292.214 336.185Z" fill="#002D2D"/>
<path d="M131.904 279.753L117.913 281.673C116.885 281.818 115.943 282.326 115.257 283.104C96.754 304.397 91.0183 320.139 91.0183 329.378C91.0183 338.785 98.4338 347.775 108.017 347.775C114.497 347.767 131.904 316.54 131.904 279.753Z" fill="#336363"/>
<ellipse cx="211.643" cy="212.578" rx="23.1186" ry="15.9258" stroke="#5A7D7D" stroke-width="9"/>
<path d="M252.08 230.104C242.865 221.857 236.385 219.273 229.418 219.273C203.195 219.273 192.62 216.602 183.212 213.914C167.509 209.419 157.166 211.914 154.606 221.113C149.807 238.399 135.407 269.962 128.288 280.769C109.889 295.231 99.4897 312.588 98.5378 324.163C97.5859 335.737 102.866 347.255 108.137 350.135C116.529 354.726 170.821 370.452 189.26 369.484C207.699 368.516 222.858 358.878 231.601 339.2C240.345 319.523 254.944 263.211 257.8 248.549C259.424 240.206 257.872 235.295 252.08 230.104Z" fill="#5A7D7D"/>
<path d="M252.424 305.813C244.425 299.374 224.322 293.071 215.778 292.535C214.734 292.457 213.737 292.982 213.211 293.887C204.787 308.461 188.436 317.555 183.188 336.697C177.813 356.398 189.028 370.1 203.595 370.1C218.162 370.1 232.441 364.861 240.305 349.623C247.904 334.897 251.56 322.323 253.376 308.301C253.511 307.363 253.151 306.421 252.424 305.813Z" fill="#336363"/>
<path d="M195.572 343.232C194.684 343.232 193.788 343.232 192.892 343.144C192.32 343.108 191.811 342.77 191.556 342.257C191.302 341.744 191.34 341.135 191.656 340.657C191.973 340.18 192.52 339.908 193.092 339.944C215.619 341.376 231.202 323.682 236.881 313.004C237.144 312.489 237.664 312.156 238.242 312.133C238.82 312.11 239.365 312.4 239.668 312.893C239.971 313.385 239.986 314.002 239.705 314.508C231.986 329.082 215.491 343.232 195.572 343.232Z" fill="#003C3C"/>
<path d="M137.247 264.275L134.144 270.474C146.391 274.234 192.268 286.36 200.068 288.759C207.867 291.159 214.603 288.528 217.666 278.769C220.73 269.01 137.247 264.275 137.247 264.275Z" fill="#003C3C"/>
<path d="M253.328 231.279C250.632 224.88 247.161 220.529 239.729 217.769C225.738 212.562 186.02 208.395 176.685 207.491C167.35 206.587 154.502 208.739 151.838 217.089C147.959 229.256 140.039 249.885 134.384 258.684C130.928 264.075 132.784 267.394 138.623 269.082C144.463 270.77 196.588 283.28 204.091 285.04C211.595 286.8 219.01 284.032 221.274 279.737C224.418 273.777 230.202 240.542 230.634 233.503C230.938 228.568 236.321 225.304 242.361 226.096C246.5 226.526 250.368 228.355 253.328 231.279Z" fill="#336363"/>
<path d="M204.051 266.595C185.844 264.387 165.39 243.046 163.414 228.72L166.614 228.28C168.406 241.278 187.812 261.404 204.467 263.419L204.051 266.595Z" fill="#003C3C"/>
<path d="M179.709 268.019C179.843 267.591 179.791 267.126 179.565 266.739C179.34 266.351 178.963 266.075 178.525 265.979L167.47 263.579C166.641 263.4 165.816 263.898 165.59 264.715C164.79 267.691 162.758 274.514 160.51 278.313C160.118 278.977 159.63 279.697 159.094 280.449C157.494 279.945 155.894 279.505 154.406 279.193C153.777 279.051 153.125 279.3 152.75 279.825L150.639 282.785C150.325 283.221 150.251 283.786 150.443 284.289C150.634 284.791 151.066 285.164 151.591 285.28C152.39 285.456 153.398 285.704 154.542 286C153.39 287.304 152.295 288.48 151.447 289.376C151.08 289.764 150.932 290.309 151.051 290.83C151.17 291.35 151.54 291.777 152.039 291.967L162.246 295.879C162.852 296.11 163.538 295.952 163.982 295.479C164.886 294.519 166.51 292.743 168.246 290.68C169.381 291.16 170.533 291.663 171.709 292.215C172.355 292.521 173.126 292.361 173.597 291.823L175.925 289.152C176.257 288.768 176.387 288.248 176.275 287.753C176.163 287.257 175.822 286.844 175.357 286.64C174.557 286.28 173.509 285.84 172.325 285.344C172.922 284.477 173.475 283.58 173.981 282.657C176.341 278.281 178.693 271.218 179.709 268.019Z" fill="#003C3C"/>
<ellipse cx="223.402" cy="249.653" rx="16.8949" ry="16.8936" fill="#003C3C"/>
<ellipse cx="221.21" cy="247.469" rx="16.895" ry="16.8936" fill="#00D180"/>
<path fill-rule="evenodd" clip-rule="evenodd" d="M233.721 248.661L225.666 252.829L225.81 249.837L231.098 247.102L223.578 242.302L223.442 245.278L223.186 250.829C223.157 252.935 221.935 254.842 220.034 255.748L214.979 258.364C214.46 258.667 213.815 258.654 213.309 258.33C212.803 258.006 212.521 257.426 212.579 256.828L213.275 241.694C213.274 241.097 213.606 240.548 214.136 240.272C214.666 239.996 215.306 240.039 215.794 240.382L220.922 243.67L221.066 240.558C221.097 239.974 221.436 239.45 221.956 239.182C222.476 238.914 223.1 238.941 223.594 239.255L233.849 245.822C234.344 246.137 234.633 246.692 234.606 247.278C234.58 247.865 234.243 248.392 233.721 248.661ZM215.226 255.325L218.762 253.501V253.509C219.897 253.005 220.622 251.871 220.602 250.629L220.786 246.63L215.77 243.43L215.226 255.325Z" fill="#003C3C"/>
<path d="M208.059 247.47H206.459C206.464 239.227 213.143 232.544 221.386 232.536V234.135C214.028 234.149 208.068 240.112 208.059 247.47Z" fill="#8FE7C3"/>
<path d="M593.371 308.549H601.034L604.097 297.062H598.01C597.086 297.063 596.277 297.682 596.035 298.574L593.371 308.549Z" fill="#33E39B"/>
<path opacity="0.75" d="M604.097 297.062L602.842 301.758L595.403 308.549H593.371L594.587 304.014L604.097 297.062Z" fill="#99F1CD"/>
<path d="M602.362 298.358C602.572 297.576 603.28 297.032 604.09 297.03H611.162C611.972 297.032 612.68 297.576 612.89 298.358L615.594 308.517H599.659L602.362 298.358Z" fill="#00DC82"/>
<path d="M619.905 315.46C619.905 315.46 608.386 316.26 601.082 329.858C601.477 324.241 600.659 318.605 598.683 313.332C591.885 315.302 585.799 319.19 581.156 324.531C579.967 318.776 577.507 313.359 573.956 308.677C569.092 311.81 565.025 316.033 562.077 321.011C559.553 314.986 555.889 309.505 551.286 304.869C548.283 308.148 545.849 311.906 544.086 315.988C538.382 302.094 527.383 300.334 527.383 300.334C524.92 303.305 523.098 306.752 522.031 310.461C518.591 306.689 514.606 303.454 510.208 300.862C507.577 305.93 506.024 311.489 505.648 317.188C497.929 307.325 488.521 307.429 488.521 307.429C485.219 313.249 484.085 320.05 485.322 326.626C479.086 322.93 471.964 320.995 464.715 321.027C464.226 327.962 465.707 334.894 468.987 341.024C463.35 339.043 457.41 338.068 451.436 338.145C451.77 343.269 453.07 348.285 455.268 352.927C443.636 350.015 432.221 353.343 432.221 353.343C434.004 358.975 436.978 364.158 440.94 368.54C434.968 368.362 429.033 369.541 423.582 371.988C423.582 371.988 428.381 387.306 443.1 392.681L443.444 392.801C438.11 394.263 433.094 396.704 428.653 400H639.96V329.994C633.98 330.425 628.215 332.398 623.225 335.721C623.969 328.791 622.822 321.79 619.905 315.46Z" fill="#1B7064"/>
<path d="M620.657 363.893C620.687 358.487 619.597 353.133 617.457 348.167C617.457 348.167 611.298 348.447 605.002 353.831C604.183 349.046 602.685 344.402 600.554 340.04C597.114 341.931 593.978 344.328 591.251 347.151C589.979 339.313 585.651 335.337 585.651 335.337C581.016 336.771 576.827 339.371 573.484 342.888C570.556 335.249 565.269 332.226 565.269 332.226C561.205 334.554 557.781 337.851 555.301 341.824C553.411 338.471 551.14 335.347 548.534 332.514C544.472 336.66 541.33 341.614 539.31 347.056C536.886 341.935 533.385 337.398 529.047 333.753C525.821 337.029 523.23 340.875 521.407 345.096C516.705 341.053 511.104 338.193 505.072 336.753C503.165 340.012 502.139 343.712 502.097 347.487C493.641 342.784 486.626 344.696 486.626 344.696C485.705 348.081 485.434 351.609 485.826 355.094C482.155 354.708 478.448 354.851 474.818 355.518C474.818 355.518 473.858 360.734 476.762 367.349C470.043 367.726 463.466 369.442 457.419 372.396C459.57 376.297 462.358 379.812 465.667 382.794C459.74 384.065 454.19 386.699 449.46 390.489C449.46 390.489 451.06 395.505 456.755 399.936H639.96V357.35C636.864 357.006 628.905 356.974 620.657 363.893Z" fill="#003C3C"/>
<path d="M615.61 298.766L631.273 297.046C633.809 296.771 636.191 298.314 636.976 300.742L639.768 309.349H609.674L610.914 303.062C611.372 300.758 613.274 299.018 615.61 298.766Z" fill="#002D2D"/>
</g>
<defs>
<clipPath id="clip0">
<rect width="640" height="400" fill="white"/>
</clipPath>
</defs>
</svg>
