<svg width="640" height="400" fill="none" xmlns="http://www.w3.org/2000/svg"><g clip-path="url(#a)"><path d="M0 0v399.968h640V0H0z" fill="#BBEDE1"/><path d="M259.72 188.385a26.005 26.005 0 0 0-5.896.68 66.547 66.547 0 0 0-38.379-53.917c-21.457-9.887-62.933 2.352-62.933 2.352s-22.002 7-33.002 24c-11.001 17-9.99 48.795-9.99 48.795h175.8c-1.971-12.612-12.834-21.909-25.6-21.91z" fill="#F5F9F9"/><path d="M564.68 181.297c-14.584 0-28.92 10.208-42.288 14.455l-5.648-7.447a.952.952 0 0 0-1.528 0l-6.944 9.167c-21.776-1.136-34.16-11.703-50.48-11.703-17.256 0-33.76 15.895-58.152 15.895-24.392 0-32.96 19.118-50.04 19.118s-31.944-23.742-47.424-23.742c-14.328 0-27.464 11.751-42.944 11.751-14.616-.008-19.232-12.647-32.032-13.607l-5.2-6.855a.952.952 0 0 0-1.528 0l-4.344 5.727c-8.688-1.928-15.2-5.799-23.2-5.799-10.656 0-29.16 13.199-38.728 13.199-14.072 0-24.096-4.184-35.416-7.12L0 399.968h640V205.879c-10.616-3.351-20.088-11.919-31.472-11.919-16.84 0-31.048-12.663-43.848-12.663z" fill="#5DBFA5"/><path d="M355.408 302.272c-.416-2.88-1.6-7.039-5.128-7.039-1.936 0-3.496 1.272-4.704 2.895l-2.072-9.783c-.8-3.896-2.312-3.927-3.304-.08l-2.344 9.015c-12.568-6.103-28.328-15.702-50.728-15.702-22.608 0-34.16-26.854-48.432-32.798-1.104-2.28-2.912-4.159-5.904-4.159h-.536c-.944-3.048-2.848-6.112-6.664-6.112-.876 0-1.745.165-2.56.488l-1.768-6.815-2.4-.872 1.816-1.256-1.136-4.472c-1-3.848-2.488-3.808-3.312.08l-1.256 5.944a6.314 6.314 0 0 0-4.08-1.36 8.531 8.531 0 0 0-4.848 1.552l-1.304-6.136c-.8-3.888-2.312-3.928-3.312-.08l-1.6 6.144-.728-3.464c-.8-3.888-2.312-3.92-3.312-.072l-1.6 6.159c-14.024-9.031-25.072-31.773-36.8-31.773a15.304 15.304 0 0 1-4.8-.736l-2.104-9.975c-.8-3.888-2.312-3.92-3.312-.072l-.448 1.712-1.88-8.88c-.8-3.887-2.312-3.927-3.312-.08l-2.296 8.848c-3.832-2.136-8.8-3.8-16.336-3.8C98.508 183.5 75.506 157.5 52.504 165 16.501 153 10.501 135-1.5 141v259l437.028-41.628s-43.704-54.46-80.12-56.1z" fill="#1B7064"/><path d="M148.688 235.557a4.497 4.497 0 0 0-2.4-1.599l24.952 64.554h25.128l-47.68-62.955z" fill="#33E39B"/><path d="M141.504 235.557 93.8 298.504h77.456l-24.952-64.554a4.495 4.495 0 0 0-4.8 1.607z" fill="#99F1CD"/><path d="M114.12 304.224s-6.088-20.863-19.12-20.863-13.04 20.863-13.04 20.863h32.16zm76.216-22.103c-6.976 0-11.96 5.976-15.088 11.528l-3.768-17.823c-1.32-6.256-3.72-6.311-5.336-.12l-5.6 21.718c-1.152-4.511-4-10.127-11.152-10.127-11.92 0-17.488 15.679-17.488 15.679h71.504s-.032-20.855-13.072-20.855z" fill="#1B7064"/><path fill-rule="evenodd" clip-rule="evenodd" d="M438.24 334.302c6.56-2.784 12.344-5.232 20.96-5.232 8 0 12.2 5.672 14.4 12.503H640v58.395H0l75.08-130.069a20.59 20.59 0 0 1 4.528-.864 2.756 2.756 0 0 1 0-.368c.272-4.688 6.104-6.2 11.272-5.896 5.168.304 6.024 2.488 5.88 5.032v.064h.528c5.336 0 9.168 1.984 9.168 4.999 0 3.016-1.792 4.872-4.8 5.784 2.896.736 4.272 2.448 4.272 4.576a3.739 3.739 0 0 1-1.088 2.583c3.4.304 5 1.88 5 3.92a3.278 3.278 0 0 1-1.6 2.712 11.36 11.36 0 0 1 3.728 1.376 9.477 9.477 0 0 1 5.496-1.6c4.904 0 8.536 1.768 9.088 4.32a9.508 9.508 0 0 1 5.272-1.48c5.336 0 9.168 2.08 9.168 4.999a5.679 5.679 0 0 1-.8 3.064 14 14 0 0 1 1.76-.12c6.376 0 9.944 2.456 9.944 5.144a5.073 5.073 0 0 1-.12 1.056 17.668 17.668 0 0 1 2.496-.176c5.264 0 8.584 2.007 9.8 5.055a3.347 3.347 0 0 1 2.032-.664c2.088 0 3.68 2.208 3.944 5.6a3.32 3.32 0 0 1 2.8-1.464c1.856 0 3.32 1.76 3.808 4.536a3.032 3.032 0 0 1 3.44-1.248 2.815 2.815 0 0 1 2.088 2.327c1.08-.799 2.752-1.343 5.248-1.343a9.105 9.105 0 0 1 4.24.848 2.894 2.894 0 0 1 2.968-.728c1.776.6 2.576 2.095 1.88 4.159-.117.35-.255.692-.416 1.024a110.414 110.414 0 0 0 19.736 1.776c13.843 0 35.186.356 56.889.717h.002c22.446.374 45.276.755 60.589.755 14.698 0 23.308 2.859 32.081 5.772l.418.139.581.192 1.608-6.007c1.672-6.424 4.16-6.368 5.528.12l1.224 5.775 2.656-10.239c1.672-6.423 4.16-6.367 5.528.12l2.168 10.239a14.296 14.296 0 0 1 8.104-2.575 10.4 10.4 0 0 1 8.944 4.567l1.72-6.615 3.944-1.464-3.024-2.096 1.92-7.495c1.664-6.416 4.152-6.36 5.52.128l3.336 15.758c3.192-4.343 7.536-8.047 13.136-8.047 4.52 0 7.528 2.456 9.528 5.656zM76.536 294.657c2.61.346 5.239.52 7.871.52.824-.003 1.647.048 2.464.152l-4.087-7.664c-.94.22-1.9.349-2.864.384a7.66 7.66 0 0 1-3 2.472c.151.715.2 1.447.144 2.176a5.237 5.237 0 0 1-.528 1.96zm10.648-3.48-2.4-4.384a3.31 3.31 0 0 0 1.032-1.176 9.42 9.42 0 0 0 1.696.336l-.328 5.224zm1.376-5.16-.264 7.2.872 1.584 4.088-7.088a5.6 5.6 0 0 1-3.136-1.864 4.98 4.98 0 0 1-1.256.168h-.304zm4.24 10.935a23.146 23.146 0 0 0-1.88-.704l4.112-8.167c.767.097 1.538.15 2.312.16a3.998 3.998 0 0 0-.632 2.184c0 1.192.8 2.08 2.127 2.639-2.703.8-5.24 2.152-6.04 3.848v.04zm25.096 10.151a19.588 19.588 0 0 1 3.384-1.263l.176-2.696c-1.571.38-3.184.562-4.8.544a7.202 7.202 0 0 1 1.24 3.415zm4.488-1.535.104-2.736a9.541 9.541 0 0 0 1.256-.584 4.904 4.904 0 0 0 1.88 2.872 18.707 18.707 0 0 0-3.224.408l-.016.04zm17.88 12.551c.84.08 1.704.152 2.576.208v-.04c-.003-.044-.008-.089-.012-.131-.006-.067-.012-.129-.012-.173a8.124 8.124 0 0 1 .616-3.112c-.992.134-1.991.201-2.992.2h-.056a7.98 7.98 0 0 1 .088 1.928c-.027.38-.097.755-.208 1.12z" fill="#003C3C"/><path d="M66.21 273.301c6.56-2.783 3.18 1.845 11.797 1.845 8 0-17.702 23.022-15.502 29.854l13.001 11-39.711 22.968L0 342.5V339c0 1-.008-5.878 0-6v-33c-.036 1.107 0-1.689 0-3.936V276.5c0-.5-.333-2.611 0-2.5l-4.021-4.53c1.672-6.424 4.16-6.368 5.528.12l1.224 5.775 2.656-10.239c1.672-6.423 4.16-6.367 5.528.12l2.168 10.239a14.304 14.304 0 0 1 8.104-2.576 10.402 10.402 0 0 1 8.944 4.568l1.72-6.615 3.944-1.464-3.024-2.096 1.92-7.495c1.664-6.416 4.152-6.36 5.52.128l3.336 15.758c3.192-4.343 7.536-8.047 13.136-8.047 4.52 0 7.528 2.456 9.528 5.655z" fill="#003C3C"/><path d="M0 370.5V381c-.157 6 .156 7.602.156 7.602S0 392.5 0 395.5l.156 4.197-.156.271h184.96c.664-.68 1.016-1.112 1.016-1.112s-4.608-8.807-17.816-9.983a34.089 34.089 0 0 0 5.824-12.455s-6.104-4.159-15.608-1.976a34.086 34.086 0 0 0 7.152-12.255 32.466 32.466 0 0 0-15.928-2.359 33.806 33.806 0 0 0 1.336-11.48s-6.872-2.191-15.2 2.4c.767-3.617.934-7.335.496-11.007 0 0-7.928-1.984-16.616 4.408a33.977 33.977 0 0 0-2.8-13.911s-5.368.248-10.864 4.935a44.54 44.54 0 0 0-3.872-11.999 34.043 34.043 0 0 0-8.112 6.192c-1.112-6.84-4.912-10.311-4.912-10.311a24.8 24.8 0 0 0-10.608 6.519c-2.56-6.663-7.2-9.303-7.2-9.303a24.794 24.794 0 0 0-8.672 8.423 43.756 43.756 0 0 0-5.896-8.119 36.012 36.012 0 0 0-5.114 6.588 35.968 35.968 0 0 0-5.277-6.859 43.755 43.755 0 0 0-5.896 8.119A24.795 24.795 0 0 0 31.721 316s-4.64 2.64-7.2 9.303a24.8 24.8 0 0 0-10.608-6.519s-3.8 3.471-4.912 10.311a34.044 34.044 0 0 0-8.112-6.192C-.5 326.5 0 326.78 0 331v4c0 5-.056 2.218 0 7v24c-.157 4.5 0 4.5 0 4.5z" fill="#002D2D"/><path d="M555.2 43.62a41.955 41.955 0 0 0-58.648 26.694H640V0h-57.528A68.095 68.095 0 0 0 555.2 43.62zm-531.405 13a41.955 41.955 0 0 1 58.648 26.694H-61.005V13h57.528a68.098 68.098 0 0 1 27.272 43.62z" fill="#F5F9F9"/><path d="M283.2 259.571a7.13 7.13 0 0 0-3.816-2.584l39.92 103.272h40.2L283.2 259.571z" fill="#00DC82"/><path d="m271.728 259.571-76.304 100.688h123.904l-39.92-103.272a7.202 7.202 0 0 0-7.68 2.584z" fill="#33E39B"/><path d="M195.424 360.259h70.232l36.056-46.116-11.976-30.63-56.272 26.55-38.04 50.196z" fill="#99F1CD"/><path fill-rule="evenodd" clip-rule="evenodd" d="M344.856 344.908c-5.528 0-9.944 2.752-13.304 6.168-2.456-6.072-7.2-11.959-16.456-11.959-8.968 0-15.688 5.543-20.288 11.423a11.151 11.151 0 0 0-6.072-1.752 10.944 10.944 0 0 0-7.92 3.328 11.52 11.52 0 0 0-10.032-3.184 19.54 19.54 0 0 0-3.584-1.36 5.088 5.088 0 0 0 2.624-4.592c0-2.143-2.864-5.743-8.088-5.823v-.168c-.272-4.68-4.552-6.24-8.312-6.024a8.172 8.172 0 0 0-1.176.152c-.272-3.423-2.272-6.399-6.32-6.167a15.178 15.178 0 0 0-3.944.728c-2.024-2.12-6.648-3.528-9.936-3.752.008-.12.008-.24 0-.36-.272-4.679-6.112-6.151-11.28-5.855-5.168.296-6.032 2.487-5.888 5.031v.064h-.528c-5.32 0-9.152 2.08-9.16 4.984a10.619 10.619 0 0 0-2.608-.32c-5.336 0-9.168 2.088-9.168 4.999 0 4.504 3.92 6.448 10.088 6.448.748.001 1.495-.06 2.232-.184a3.88 3.88 0 0 0 1.032 2.016c-2.616.232-4.168 1.216-4.736 2.6h-.36c-14.288 0-14.288 22.854-14.288 22.854l172.152.04s-.008-19.335-14.68-19.335zm-120.392-.872-.328-5.223a9.326 9.326 0 0 0 1.688-.336 3.34 3.34 0 0 0 1.04 1.176l-2.4 4.383zm16.336 5.392.944-4.536a19.276 19.276 0 0 1-3.976-.464l1.344 3.328c.443.429.811.929 1.088 1.48l.202.062c.135.041.27.082.398.13zm-19.272-10.711c.409.11.832.166 1.256.168h.296l.264 7.199-.864 1.6-4.08-7.103a5.644 5.644 0 0 0 3.128-1.864zm7.328 1.816-4.288 8.047.072 2.592a9.354 9.354 0 0 1 3.496 1.984c.2-.232.4-.464.616-.688a5.127 5.127 0 0 1-.44-1.768c-.144-2.528.448-4.712 4.208-4.927a10.019 10.019 0 0 1 4.896.871l-.944-2.527a8.8 8.8 0 0 1-4.752-3.2 15.185 15.185 0 0 1-2.864-.384zm13.456 7.095.504-2.727h.32a8.268 8.268 0 0 0 1.936 1.399 9.46 9.46 0 0 0-2.76 1.328zm-27.376-4.343c0 1.327-.96 2.271-2.6 2.815a33.228 33.228 0 0 1 5.32 6.896 6.299 6.299 0 0 1 3.199-1.96l.104-1.464-4.351-8.631c-.765.094-1.534.144-2.304.152.415.655.634 1.416.632 2.192z" fill="#003C3C"/><path d="m610.304 65.235-15.152 112.879H640V40.277h-9.12c-10.016 0-18.632 10.455-20.576 24.958z" fill="#003C3C"/><path d="M626.344 71.138 611.2 183.986H640V47.925c-6.856 3.543-12.176 12.206-13.656 23.213z" fill="#002D2D"/><path d="m569.272 184.969-15.152 76.458H640v-93.361h-50.152c-10.015.001-18.632 7.08-20.576 16.903z" fill="#003C3C"/><path d="m585.312 192.169-15.144 76.458H640v-93.361h-34.104c-10.015.003-18.634 7.08-20.584 16.903z" fill="#002D2D"/><path d="m540.08 260.827-8.176 8.175H497.96l-3.44-3.431a12.441 12.441 0 0 0-8.8-3.648h-20.44l-2.08-2.072a11.652 11.652 0 0 0-8.224-3.4H401.6a9.716 9.716 0 0 0-6.864 2.84l-2.912 2.912a5.078 5.078 0 0 0-1.496 3.6v6.039a12.424 12.424 0 0 0 3.64 8.8l23.424 23.422a22.796 22.796 0 0 0 6.688 16.134l32.72 32.718a22.863 22.863 0 0 0-21.744 15.783l-10.168 31.269H640V254.724h-85.176a20.88 20.88 0 0 0-14.744 6.103z" fill="#002D2D"/><path d="M483.752 364.579a13.991 13.991 0 0 0-13.72 11.271l-4.8 24.118h44.864v-35.389h-26.344z" fill="#003C3C"/><path d="M437.2 379.969c-1.08-8.719-7.128-15.558-7.128-15.558a28.06 28.06 0 0 0-7.4 11.287 26.242 26.242 0 0 0-10.04-6.992s-3.272 3.624-3.2 10.103a26.176 26.176 0 0 0-9.28-1.279s-2.256 6.783 3.376 14.398a34.098 34.098 0 0 0-12.848 1.6 26.103 26.103 0 0 0 3.552 6.4h67.264v-19.959H437.2z" fill="#002D2D"/><path d="M456.8 357.7h.384a6.665 6.665 0 0 0 6.4-4.8H456.8a22.863 22.863 0 0 0-21.744 15.783l-10.168 31.285h5.048l9.72-29.797A18.064 18.064 0 0 1 456.8 357.7z" fill="#003C3C"/><path d="M580.976 254.66h13.296l5.32-19.943h-10.576a3.552 3.552 0 0 0-3.424 2.632l-4.616 17.311z" fill="#33E39B"/><path opacity=".75" d="m599.592 234.717-2.176 8.16-12.912 11.783h-3.528l2.096-7.872 16.52-12.071z" fill="#99F1CD"/><path d="M596.592 237.021a3.104 3.104 0 0 1 3-2.304h12.224a3.097 3.097 0 0 1 2.992 2.304l4.704 17.639h-27.624l4.704-17.639z" fill="#00DC82"/><path d="M601.544 254.66h7.655l3.064-11.479h-6.087c-.925 0-1.734.619-1.976 1.512l-2.656 9.967z" fill="#33E39B"/><path opacity=".75" d="m612.263 243.173-1.248 4.695-7.439 6.792h-2.032l1.208-4.536 9.511-6.951z" fill="#99F1CD"/><path d="M610.544 244.501a1.775 1.775 0 0 1 1.72-1.328h7.04a1.783 1.783 0 0 1 1.728 1.328l2.712 10.159h-15.912l2.712-10.159z" fill="#00DC82"/><path d="M623.776 244.877a5.366 5.366 0 0 0-4.688 4.295l-1.104 5.552h-63.2a20.88 20.88 0 0 0-14.744 6.103l-8.176 8.176h3.2a8.62 8.62 0 0 0 6.096-2.52l2.256-2.256a16.004 16.004 0 0 1 11.352-4.704H640v-16.342h-.552l-15.672 1.696z" fill="#003C3C"/><path d="M483.656 364.467h11.152l4.464-16.727H490.4a2.977 2.977 0 0 0-2.872 2.208l-3.872 14.519z" fill="#33E39B"/><path opacity=".75" d="m499.272 347.74-1.824 6.848-10.832 9.879h-2.96l1.76-6.6 13.856-10.127z" fill="#99F1CD"/><path d="M496.8 349.676a2.601 2.601 0 0 1 2.512-1.936h10.208a2.592 2.592 0 0 1 2.512 1.936L516 364.467h-23.2l4-14.791z" fill="#00DC82"/><path d="M501.992 368.578a13.983 13.983 0 0 0-13.72 11.271l-4 20.119h44.072v-31.39h-26.352z" fill="#002D2D"/><path d="M550.4 315.247h13.304l5.312-19.942H558.4a3.551 3.551 0 0 0-3.432 2.631l-4.568 17.311z" fill="#33E39B"/><path opacity=".75" d="m568.984 295.305-2.176 8.159-12.912 11.783h-3.528l2.104-7.871 16.512-12.071z" fill="#99F1CD"/><path d="M565.992 297.576a3.097 3.097 0 0 1 2.992-2.304h12.224c1.406 0 2.637.945 3 2.304l4.704 17.599h-27.624l4.704-17.599z" fill="#00DC82"/><path d="M593.464 310.767a3.28 3.28 0 0 0-3.496-2.263l-9.6 1.048a3.303 3.303 0 0 0-2.88 2.639l-.472 2.4h-44.28a20.984 20.984 0 0 0-20.584 16.903l-13.6 68.498H640v-85.425h-45.304l-1.232-3.8z" fill="#003C3C"/><path d="m543.504 335.47-12.8 64.498H640v-81.401h-75.912c-10.016 0-18.637 7.078-20.584 16.903z" fill="#002D2D"/><path d="M626.792 334.685a44.712 44.712 0 0 0-10.312-8.391 35.982 35.982 0 0 0-4 14.239c-6.712-8.56-14.88-8.512-14.88-8.512a24.678 24.678 0 0 0-2.856 16.751A34.903 34.903 0 0 0 576.8 343.9a32.15 32.15 0 0 0 3.728 17.423 44.436 44.436 0 0 0-15.312-2.512 35.333 35.333 0 0 0 3.344 12.895c-10.152-2.536-20.112.368-20.112.368A36.05 36.05 0 0 0 556 385.361a34.532 34.532 0 0 0-15.144 3.008 32.606 32.606 0 0 0 7.2 11.599H640v-69.435a18.107 18.107 0 0 0-8.536-4.687 24.488 24.488 0 0 0-4.672 8.839z" fill="#1B7064"/><path d="M634.232 344.165a32.482 32.482 0 0 0-6.664 9.895 33.898 33.898 0 0 0-14.232-7.264 18.964 18.964 0 0 0-2.592 9.36c-7.376-4.096-13.496-2.4-13.496-2.4a24.082 24.082 0 0 0-.728 9.071 33.301 33.301 0 0 0-9.6.368 19.27 19.27 0 0 0 1.688 10.319 44.095 44.095 0 0 0-16.872 4.4 34.795 34.795 0 0 0 7.2 9.063 34.016 34.016 0 0 0-14.144 6.72 18.067 18.067 0 0 0 4.184 6.303H640v-49.58a31.6 31.6 0 0 0-5.768-6.255zM494.52 265.578a12.44 12.44 0 0 0-8.8-3.647h-4.488a3.328 3.328 0 0 0-2.4-2.216l-5.08-1.168a3.328 3.328 0 0 0-4 2.592l-.152.8h-4.32l-2.08-2.088a11.648 11.648 0 0 0-8.224-3.4H401.6a9.73 9.73 0 0 0-6.864 2.84l-2.912 2.912a5.055 5.055 0 0 0-1.424 3.375h.752a9.922 9.922 0 0 0 7.032-2.919 4.9 4.9 0 0 1 3.472-1.432h53.352a6.83 6.83 0 0 1 4.8 2l3.472 3.471h22.48a9.337 9.337 0 0 1 3.776 1.312 8.241 8.241 0 0 0 3.92.968h4.504l-3.44-3.4z" fill="#003C3C"/><path d="M460.288 264.379a19.869 19.869 0 0 1-2.688-9.911v-39.517c0-4-1.424-8.744-3.056-12.879a28.999 28.999 0 0 0-12.504-14.399l-3-1.736a13.926 13.926 0 0 0-6.968-1.864H428a4.174 4.174 0 0 1-3.912-2.704c-2.32-6.135-9.144-20.686-21.928-21.534l-.352-1.552s5.808-19.414 25.392-19.414 29.128 11.103 29.128 20.102c0 9.368-4.8 14.551-10.816 17.383a.56.56 0 0 0 .216 1.064c6.656.192 17.264-8.112 17.264-18.447 0-13.599-12.312-29.141-36.16-29.141-26.584 0-36.928 21.598-36.928 29.349v2.24a4.248 4.248 0 0 0-2.36 2.832l-.544 2.176-12.768 13.559 2.664 2.879a9.648 9.648 0 0 0 7.088 3.104h1.76a31.01 31.01 0 0 1-2.824 13.095c5.872-3.616 9.144-14.111 9.144-14.111l5.64-1.808s6.2 13.911 6.2 28.214c0 7.144 4.48 14.911 4.48 14.911v9.399a18.087 18.087 0 0 0 1.488 7.2l1.288 2.991a20.708 20.708 0 0 1 1.696 8.216v10.191h4.288v-9.215a16.801 16.801 0 0 0-.688-4.752l-.744-2.496v-15.199s4.064 4.288 9.448 5.448v9.743l-.8 2.48a13.499 13.499 0 0 0-.624 4.064v9.895h4.112v-8.679c0-1.8.472-3.568 1.368-5.128l1.848-3.2 1.768 4.504c.6 1.529.91 3.157.912 4.799v7.704h4.288V251.18a10.758 10.758 0 0 1-2.68-6.616v-5.703s8.208-1.408 12.152-5.36c2.144 5.008 5.768 16.983 5.768 16.983v5.887a14.72 14.72 0 0 0 1.128 5.528l3.384 8.239h5.848l-3.344-5.759z" fill="#002D2D"/></g><defs><clipPath id="a"><path fill="#fff" d="M0 0h640v400H0z"/></clipPath></defs></svg>