<svg width="324" height="324" viewBox="0 0 324 324" fill="none" xmlns="http://www.w3.org/2000/svg">
<path d="M181.767 270H302.211C306.037 270 309.795 269.003 313.108 267.107C316.421 265.211 319.172 262.484 321.084 259.2C322.996 255.915 324.002 252.19 324 248.399C323.998 244.607 322.989 240.883 321.074 237.601L240.187 98.7439C238.275 95.4607 235.525 92.7342 232.213 90.8385C228.901 88.9429 225.143 87.9449 221.318 87.9449C217.494 87.9449 213.736 88.9429 210.424 90.8385C207.112 92.7342 204.361 95.4607 202.449 98.7439L181.767 134.272L141.329 64.7975C139.416 61.5145 136.664 58.7884 133.351 56.8931C130.038 54.9978 126.28 54 122.454 54C118.629 54 114.871 54.9978 111.558 56.8931C108.245 58.7884 105.493 61.5145 103.58 64.7975L2.92554 237.601C1.01067 240.883 0.00166657 244.607 2.06272e-06 248.399C-0.00166244 252.19 1.00407 255.915 2.91605 259.2C4.82803 262.484 7.57884 265.211 10.8918 267.107C14.2047 269.003 17.963 270 21.7886 270H97.3936C127.349 270 149.44 256.959 164.641 231.517L201.546 168.172L221.313 134.272L280.637 236.1H201.546L181.767 270ZM96.1611 236.065L43.3984 236.054L122.49 100.291L161.953 168.172L135.531 213.543C125.436 230.051 113.968 236.065 96.1611 236.065Z" fill="#00DC82"/>
</svg>
