<svg width="640" height="400" fill="none" xmlns="http://www.w3.org/2000/svg"><g clip-path="url(#a)"><path d="M0 0v399.944h639.96V0H0z" fill="#BBEDE1"/><path d="M221.298 34.631c-3.712.003-7.421-.194-11.112-.592l-7.575-9.998a.944.944 0 0 0-1.52 0l-4.656 6.19c-1.288-3.519-3.56-7.31-7.415-7.31a6.495 6.495 0 0 0-4 1.512 13.096 13.096 0 0 0-10.047-4.672c-1.12 0-2.234.138-3.32.408-10.331-6.895-16.213-8.112-20.165-6.658l-.074-.06a162.272 162.272 0 0 1-31.318 9.598l-7.359-9.67a.952.952 0 0 0-1.52 0l-6.856 9.086a7.023 7.023 0 0 0-4.991-2.32c-3.16 0-5.264 2.56-6.632 5.424h-.096c-10.312 0-18.46 10.236-28.57 22.94-8.8 11.057-19.088 23.983-33.586 33.66a13.77 13.77 0 0 0-3.32-.408 13.096 13.096 0 0 0-10.047 4.671 6.495 6.495 0 0 0-4-1.511c-3.856 0-6.128 3.791-7.415 7.31l-4.656-6.19a.944.944 0 0 0-1.52 0L0 101c-3.69.397.288 30.5-.472 41.5.76 46 1.52 37.5 0 91.5v61.5L0 380.252V400l24.416-9.874L192.015 397l10.124-78.748 19.523-7.896h381.236c-20.542 0-53.431-40.063-89.052-83.454-42.073-51.25-87.957-107.143-121.806-107.143-3.712.003-7.421-.195-11.112-.592l-7.575-9.999a.945.945 0 0 0-1.52 0l-4.656 6.192c-1.288-3.52-3.56-7.311-7.415-7.311a6.493 6.493 0 0 0-4 1.511 13.096 13.096 0 0 0-10.047-4.671c-1.12.001-2.234.138-3.32.408-14.498-9.677-24.786-22.603-33.585-33.66-10.112-12.704-18.259-22.94-28.571-22.94h-.096c-1.368-2.864-3.472-5.423-6.632-5.423-1.91.062-3.713.9-4.992 2.32l-6.855-9.087a.953.953 0 0 0-1.52 0l-7.36 9.67a165.64 165.64 0 0 1-1.402-.285c-10.71-7.097-20.845-11.26-30.084-11.26z" fill="#5DBFA5"/><path d="M631.609 39.394c3.456 0 6.192 1.72 8.351 4.176v243.19l-90.8.007 3.475 5.681L0 400V102.5c0-6-.5-22 0-27.39C0 68.5-.185 59.183-.5 56.5l3.297-19.28c1.928-9.103 5.415-9.183 7.76-.176l6.327 24.372 5.936-28.06c2.615-12.382 7.36-12.486 10.543-.24l3.712 14.302-5.768 4 7.528 2.783 5.423 20.91L49.504 42.5c1.92-9.11 3.665-9.015 6 0l4.801 27.619 2.2-4.619c4-9.5 6.665-3.507 9 5.5l2.08 6.326a9.712 9.712 0 0 1 8.007 1.84l1.915-4.666c1.927-9.11 7.164-9.015 9.5 0l5.72 20.08h.592a14.992 14.992 0 0 1 10.671 4.335c2.184-2.552 9.484-14.415 13.02-14.415 6.463 0 5.691 16.087 7.763 21.678 7.862 1.886 15.688 4.466 23.405 7.488 8.562-17.268 22.179-19.183 22.179-19.183 4.816 2.175 7.792 7.999 9.495 12.798a10.4 10.4 0 0 1 7.912-3.864c6.504 0 10.487 6.048 12.799 11.647a10.332 10.332 0 0 1 7.88-3.832c5.975 0 9.807 5.152 12.207 10.351 20.998 0 44.033 8.235 66.012 16.77 1.657-7.042 4.326-7.969 6.48-2.743 1.966-2.072 4.444-3.469 7.551-3.469 4.256 0 7.439 2.616 9.775 6l1.256-4.8c2.336-9.007 5.832-8.927 7.752.176l2.831 13.374 1.84-7.087c2.344-9.014 5.832-8.934 7.76.176l1.84 8.623a9.968 9.968 0 0 1 6.903-2.84c6.192 0 10.104 5.528 12.448 10.911 13.453-1.538 31.451-11.404 52.015-22.674 23.064-12.642 49.353-27.051 76.073-33.462 2.071-5.591 5.807-11.623 12.271-11.623 3.536 0 6.328 1.808 8.511 4.36a14.993 14.993 0 0 1 10.672-4.336h.592l6.975-26.86c2.336-9.014 5.832-8.935 7.76.176l2.4 11.27a9.71 9.71 0 0 1 8.007-1.84l3.928-15.109c2.336-9.007 5.832-8.927 7.752.176l1.599 7.727 4-15.31c2.336-9.015 5.832-8.935 7.752.176L573.7 69.47l5.424-20.909 7.528-2.783-5.768-4 3.712-14.302c3.184-12.246 7.927-12.142 10.543.24l5.936 28.06 6.327-24.373c2.344-9.006 5.832-8.926 7.76.177l4.112 19.597c2.071-5.64 5.815-11.783 12.335-11.783z" fill="#1B7064"/><path fill-rule="evenodd" clip-rule="evenodd" d="M448.9 262.867a22.06 22.06 0 0 1 15.999-6.719c22.59 0 29.046 30.66 29.046 30.66H241.409s3.032-33.059 15.495-46.865H254.6l.312-1.2c-9.847-.056-16.463-4.312-16.463-10.015 0-4.271 2.768-7.735 8.599-9.223-6.063-1.831-9.599-5.591-9.599-11.662 0-5.887 7.728-10.087 18.487-10.087.185 0 .364.013.542.025.176.012.351.023.53.023a.684.684 0 0 1 0-.128c-.304-5.023 1.36-9.35 11.199-10.102l1.76-6.783c3.488-13.438 8.696-13.342 11.567.256l1.768 8.359c4.656 1.807 8.04 4.975 8.32 9.926a3.77 3.77 0 0 1 0 .736 43.226 43.226 0 0 1 10.399 2.152c3.24-1.616 7.632-2.56 12.719-2.56.181 0 .36.012.538.024.176.012.351.024.526.024v-.128c-.296-5.127 1.432-9.55 11.863-10.15 10.432-.6 22.223 2.375 22.767 11.806.02.245.02.491 0 .736 6.624.456 15.959 3.279 20.047 7.543a30.543 30.543 0 0 1 7.943-1.448c8.168-.472 12.192 5.535 12.751 12.446a15.396 15.396 0 0 1 2.4-.312c7.576-.44 16.215 2.72 16.759 12.151v.336c10.536.16 16.303 7.431 16.303 11.75a10.264 10.264 0 0 1-5.263 9.271 37.966 37.966 0 0 1 7.287 2.775 22.893 22.893 0 0 1 3.92-.336 23.242 23.242 0 0 1 16.319 6.719zM282.91 242.11c.552.712 1.08 1.44 1.6 2.24a19.626 19.626 0 0 1 7.183-1.184 11.515 11.515 0 0 1-1.16-3.2h-6.471l-1.152 2.144zm19.799 15.182c2.12-1.128 3.32-2.76 3.32-4.864a8.264 8.264 0 0 0-.8-3.535 22.621 22.621 0 0 0 3.783-.888l.472 12.862a23.628 23.628 0 0 0-6.775-3.575zm15.207 13.142c1.944-4.527 5.064-8.535 10.063-9.766l.24-2.976-8.799-17.398c-1.2.16-2.48.256-3.832.304.004.056.004.112 0 .168.168 2.896-1.672 5.008-4.527 6.399l1.015 15.894a37.178 37.178 0 0 1 5.84 7.375zm13.335-16.542-8.255-14.294c2.903-.8 5.087-2.056 6.319-3.744.833.216 1.691.326 2.552.328h.607l.536 14.518-1.759 3.192zm6.768-18.525a19.29 19.29 0 0 1-3.424.672l.696 10.534 4.799-8.847a6.8 6.8 0 0 1-2.071-2.359zm13.487 14.63c-7.584.44-8.799 4.799-8.487 9.95.085 1.232.386 2.44.887 3.568-.431.448-.839.912-1.239 1.392a19.07 19.07 0 0 0-7.048-4l-.152-5.151 8.663-16.246a29.78 29.78 0 0 0 5.76.8c1.912 2.808 5.24 5.015 9.6 6.399l1.895 5.08a20.37 20.37 0 0 0-9.895-1.792h.016zm15.578 7.108h.001c.36.108.724.217 1.075.339l1.952-9.127a40.447 40.447 0 0 1-8.079-.952l2.704 6.695a11.211 11.211 0 0 1 2.224 3.008l.123.037zm4.173-3.285.002-.013a18.682 18.682 0 0 1 5.517-2.643 16.597 16.597 0 0 1-3.863-2.863h-.624l-1.03 5.506-.018.013h.016zm13.445 19.868.01.017h-.016a.325.325 0 0 0 .006-.017zm0 0a.64.64 0 0 1 .066-.127h-.128c.018.044.039.086.062.127z" fill="#003C3C"/><path d="M637.064 105.001a9.16 9.16 0 0 0 2.896 6.767V99.986a5.927 5.927 0 0 0-2.896 5.015z" fill="#003C3C"/><path fill-rule="evenodd" clip-rule="evenodd" d="M621.985 78.501c0 4.72 2.672 7.687 7.256 9.207l-.688 20.797-6.528-5.839a8.263 8.263 0 0 0 5.192-7.911c0-3.496-4.72-9.43-13.343-9.43-8.624 0-14.815 3.375-14.815 8.086a9.273 9.273 0 0 0 1.152 4.711 16.242 16.242 0 0 0-6.12-1.143c-5.24 0-9.6 1.247-12.175 3.279v-2.584c.682.08 1.368.123 2.056.128 8.623 0 14.823-3.367 14.823-8.078 0-5.6-3.784-8.8-10.088-9.911a5.46 5.46 0 0 0 1.728-4.096c0-2.28-3.08-6.15-8.703-6.15-5.624 0-9.664 2.2-9.664 5.27a5.8 5.8 0 0 0 3.76 5.6 8.398 8.398 0 0 0-3.88 3.2 10.397 10.397 0 0 0-4.799-1.128c-5.6 0-9.664 2.2-9.664 5.27 0 4.744 4.128 6.8 10.632 6.8a13.67 13.67 0 0 0 2.071-.152l5.912 17.805-.304 9.143a19.69 19.69 0 0 0-6.92-1.24c-6.031 0-13.655 2.88-13.655 7.319.005.334.026.668.064 1-7.999 1.088-11.767 5.071-11.767 10.175a7.583 7.583 0 0 0 1.28 4.207c-3.234.27-6.418.975-9.463 2.096l-4.968-23.269c-2.872-13.598-8.08-13.702-11.567-.264l-4.072 15.694 6.327 4.391-8.287 3.048-1.656 6.399-4-18.997c-2.88-13.598-8.079-13.702-11.575-.264l-15.359 59.151h39.39l-2.176-10.262h25.43l-1.304-6.183a48.326 48.326 0 0 0 10.296 1.048 73.11 73.11 0 0 0 6.663-.296l14.719 23.908-2.896 87.804h13.16l-.488-58.872 8.887-6.831c3.283.666 6.626.993 9.975.976 10.536 0 18.703-2.008 23.199-5.847l-1.36 41.154a22.846 22.846 0 0 0-7.687-1.304c-22.599 0-27.439 30.668-27.439 30.668h51.413v-47.417a18.316 18.316 0 0 0-4.496 3.071l-.12-14.398 4.616-3.591v-4.224l-4.648 3.4-.048-5.695c1.5.821 3.072 1.504 4.696 2.039v-29.02a25.332 25.332 0 0 0-4.904 1.968l-.056-6.831 4.96-3.047v-5.376l-5.008 2.768v-5.359a26.732 26.732 0 0 0 5.048 1.535v-24.324c-1.787.279-3.54.743-5.232 1.384l-.056-6.767c3.112-1.36 5-3.4 5.288-6.096v-1.623a10.597 10.597 0 0 0-5.416-8.423l-.088-10.007 5.464-3.967v-4l-5.536 3.616-.168-20.51a14.905 14.905 0 0 0 5.704 1.28V70.71a17.182 17.182 0 0 0-3.2-.288c-8.575-.032-14.775 3.368-14.775 8.08zm-48.534 112.784-10.902-16.733c4.871-.84 8.799-2.296 11.598-4.36l-.696 21.093zm-2.111-43.57a18.137 18.137 0 0 1 3.448 3.056l.16-4.808a14.26 14.26 0 0 1-3.608 1.752zm4.976-43.177-3.888-10.719c.224-.098.443-.207.656-.328a13.2 13.2 0 0 0 3.504 2.6l-.272 8.447zm6.576 113.376.048 5.695 4.863-3.552a28.444 28.444 0 0 1-4.911-2.143zm-.208-25.013-.056-6.831.152-.096a26.766 26.766 0 0 0 8.526 4.088 28.708 28.708 0 0 0-8.622 2.855v-.016zm34.414-2.384 8.582 5.12.288-8.655a26.263 26.263 0 0 1-8.87 3.535zm9.703-28.947a11.593 11.593 0 0 0-.4 2.999c-.001.67.071 1.338.216 1.992-2.584-2.712-6.448-4.967-11.935-6.295-1.6-2.88-4.544-5.423-9.352-6.959a5.12 5.12 0 0 0 2.48-4.439c0-3.48-4.064-6.08-10.103-6.08-6.04 0-9.976 1.784-9.976 5.104a6.048 6.048 0 0 0 1.6 4.135 27.214 27.214 0 0 0-6.951 1.6l-.088-10.623 9.031-6.455a24.62 24.62 0 0 0 9.391 1.6c1.57.008 3.138-.112 4.688-.36v.608c0 6.007 7.008 10.487 17.431 10.487 1.6 0 3.056-.08 4.456-.216l-.488 12.902zm-5.672-41.835a14.473 14.473 0 0 1 7 1.6l.328-9.062-9.336-8.799c-1.233.215-2.483.32-3.735.312a28.422 28.422 0 0 1-9.408-1.344 7.134 7.134 0 0 1 1.488 3.911c0 3.48-1.888 9.079-11.855 9.079-6.12 0-10.84-1.184-13.599-3.751l.224 26.996 6.007-3.928a9.167 9.167 0 0 1-3.552-7.351c0-5.031 5.976-7.719 15.12-7.719 5.071 0 9.215 1.224 11.903 3.2 1.288-2.056 4.712-3.144 9.415-3.144zM-1.96 140.032c0 3.714-2.675 6.05-7.266 7.246l.69 16.368L-2 159.05c-3.224-1.013-5.3-3.499-5.2-6.226 0-2.751 4.727-7.422 13.363-7.422 8.637 0 14.838 2.656 14.838 6.364.04 1.295-.358 2.575-1.154 3.708a20.233 20.233 0 0 1 6.13-.9c5.247 0 9.613.982 12.193 2.581v-2.033c-.684.063-1.371.096-2.06.101-8.636 0-14.845-2.651-14.845-6.359 0-4.407 3.79-6.925 10.103-7.8-1.132-.833-1.761-2.004-1.73-3.223 0-1.794 3.084-4.841 8.716-4.841s9.678 1.731 9.678 4.149c.073 1.95-1.44 3.721-3.766 4.406 1.593.508 2.949 1.387 3.886 2.518a12.802 12.802 0 0 1 4.807-.887c5.608 0 9.678 1.731 9.678 4.148 0 3.734-4.134 5.351-10.647 5.351a17.3 17.3 0 0 1-2.075-.119l-5.92 14.013.304 7.196a24.55 24.55 0 0 1 6.93-.976c6.04 0 13.675 2.266 13.675 5.76a6.2 6.2 0 0 1-.064.787c8.012.856 11.785 3.991 11.785 8.008-.002 1.179-.448 2.331-1.281 3.311 3.239.213 6.427.767 9.477 1.65l3.348 2.19c2.003 2.405.501-.117 5.008 7.753 0 0 1.866 6.063 0 8.264-2.743 3.237-11.518 5.79-11.518 5.79l-16.755 23.33-3.9 5.358-5 6.5-7.922 11.5.126 3 .314 7.5.42 10-1.348-32.129 26.365-35.292 4.67-.591a61.06 61.06 0 0 1-10.312.824c-2.347 0-4.574-.081-6.673-.233l-14.742 18.817 2.9 69.104H36.626l.488-46.334-8.9-5.376a61.899 61.899 0 0 1-9.991.768c-10.551 0-18.731-1.58-23.234-4.602L-.5 266c2.473-.686 6-1.797 10 .637C33.335 281.137 24.456 286 24.456 286H-19.96v-19.363a19.174 19.174 0 0 1 4.502 2.418l.12-11.332-4.623-2.827v-3.323l4.655 2.675.048-4.482a32.559 32.559 0 0 1-4.703 1.605v-22.839a29.72 29.72 0 0 1 4.912 1.548l.056-5.376-4.968-2.398v-4.231l5.016 2.178v-4.218c-1.63.533-3.324.938-5.056 1.209V198.1c1.79.22 3.546.585 5.24 1.089l.056-5.326c-3.116-1.07-5.007-2.675-5.296-4.797v-1.278c.282-2.784 2.318-5.272 5.424-6.629l.088-7.875-5.472-3.123v-3.147l5.545 2.845.168-16.141a18.398 18.398 0 0 1-5.713 1.007V133.9c1.057-.154 2.13-.23 3.205-.226 8.589-.026 14.798 2.65 14.798 6.358zm48.607 88.764 10.92-13.17c-4.88-.661-8.813-1.807-11.617-3.431l.697 16.601zm2.115-34.291a17.518 17.518 0 0 0-3.453 2.405l-.16-3.784a16.228 16.228 0 0 0 3.613 1.379zm-4.983-33.982 3.893-8.435a8.348 8.348 0 0 1-.656-.259 13.46 13.46 0 0 1-3.51 2.046l.273 6.648zm-6.586 89.23-.048 4.482-4.87-2.795a32.882 32.882 0 0 0 4.918-1.687zm.209-19.685.056-5.377-.153-.075c-2.58 1.462-5.473 2.551-8.54 3.217a34.476 34.476 0 0 1 8.637 2.247v-.012zm-32.047-2.235-11.016 4.388-.288-6.812c2.72 1.346 8.151 1.931 11.304 2.424zm-12.137-22.424c.264.77.398 1.564.4 2.361a5.724 5.724 0 0 1-.216 1.567c2.588-2.134 6.457-3.909 11.953-4.954 1.602-2.266 4.55-4.268 9.366-5.477-1.558-.736-2.503-2.066-2.484-3.494 0-2.738 4.07-4.784 10.119-4.784 6.049 0 9.99 1.404 9.99 4.016.01 1.205-.563 2.368-1.602 3.255a33.58 33.58 0 0 1 6.962 1.259l.088-8.36-9.045-5.081a30.746 30.746 0 0 1-9.406 1.259 36.395 36.395 0 0 1-4.694-.283v.479c0 4.727-7.019 8.253-17.458 8.253a57.99 57.99 0 0 1-4.462-.17l.489 10.154zm5.68-32.925c-2.434-.05-4.845.383-7.01 1.259l-.329-7.132 9.35-6.925c1.235.17 2.487.252 3.741.245a35.67 35.67 0 0 0 9.422-1.057c-.877.886-1.396 1.958-1.49 3.078 0 2.739 1.89 7.145 11.873 7.145 6.129 0 10.856-.931 13.62-2.952l-.225 21.247-6.017-3.091c2.274-1.385 3.59-3.526 3.558-5.786 0-3.959-5.985-6.075-15.142-6.075-5.08 0-9.23.963-11.922 2.518-1.29-1.617-4.718-2.474-9.43-2.474z" fill="#003C3C"/><path fill-rule="evenodd" clip-rule="evenodd" d="M177.405 255.364H154.39c5.384 14.63 6.92 31.356 6.92 31.356H65.372s.475-8.91 3.133-13.72c2.822-5.104 3.756 2.636 8.001 4.5 4.245 1.864 7.22-10.204 8.4-7.194a37.424 37.424 0 0 1 5.84-7.375l1-15.861a10.398 10.398 0 0 1-2.535-1.688s-6.059-16.081 0-22.382c4.37-4.545 15.51-4.486 15.51-4.486h1.432a21.718 21.718 0 0 1 6.568.887c.712-4.415 6.504-10.878 16.567-10.878 10.359 0 17.895 3.911 18.439 9.455l5.647-21.773c3.488-13.43 8.696-13.334 11.568.264l12.463 58.895zm-83.61-7.463-.473 12.862a23.226 23.226 0 0 1 6.792-3.591c-2.12-1.136-3.32-2.768-3.32-4.864a8.283 8.283 0 0 1 .8-3.543 23.428 23.428 0 0 1-3.8-.864zm24.518-3.655-.033-.012-2.239-12.658a12.724 12.724 0 0 1-4 2.055 14.02 14.02 0 0 1 .416 4.856 10.78 10.78 0 0 1-1.344 4.519c2.445-.04 4.875.376 7.167 1.228l.001.004.032.008zm-.424-14.63 2.4 11.91v.04c3.119-3.911 6.799-6.671 11.143-7.455a4.803 4.803 0 0 1-.8-2.608c-1.056.096-2.104.096-3.2.096-4.256 0-7.335-.816-9.543-2.063v.08z" fill="#003C3C"/><path d="M443.324 146.891c-2.872-13.598-8.079-13.702-11.567-.264l-15.359 59.192h39.381l-12.455-58.928z" fill="#003C3C"/><path d="M0 399.944h639.96V283.088H0v116.856z" fill="#002D2D"/><path d="M393.015 161.337h219.443v125.479H390.624V163.729a2.4 2.4 0 0 1 2.391-2.392z" fill="#33E39B"/><path d="M609.386 161.337h6.135a2.4 2.4 0 0 1 2.4 2.4v123.079h-10.935V163.737a2.4 2.4 0 0 1 2.4-2.4zm-207.547 12.679h193.932v23.733H401.839z" fill="#00DB81"/><path fill="#66E9B3" d="M401.839 210.834h63.86v9.935h-63.86zm0 18.902h44.493v9.935h-44.493z"/><path fill="#00DB81" d="M401.839 248.629h25.83v9.935h-25.83zm31.574 0h25.83v9.935h-25.83z"/><path fill="#66E9B3" d="M518.32 210.834h77.451v63.295H518.32z"/><path fill="#00DB81" d="M528.111 217.777h57.868v5.135h-57.868zm0 11.071h57.868v5.135h-57.868zm0 11.07h57.868v5.135h-57.868zm0 11.063h57.868v5.135h-57.868zm0 11.07h57.868v5.135h-57.868z"/><path d="M393.135 161.337h125.177l-62.524 125.431h-65.052V163.737a2.4 2.4 0 0 1 2.399-2.4z" fill="#64E5B3" style="mix-blend-mode:screen" opacity=".33"/><path d="M464.867 288.664h-44.269l10.455-9.255a7.515 7.515 0 0 1 5-1.896h3.696a7.551 7.551 0 0 1 5.159 2.04l1.6 1.496a7.537 7.537 0 0 0 5.16 2.039h4.304a7.52 7.52 0 0 1 5.159 2.04l3.736 3.536z" fill="#002D2D"/><path d="M386.488 287.896h-13.295l-5.32-19.934h10.575a3.551 3.551 0 0 1 3.424 2.632l4.616 17.302z" fill="#33E39B"/><path opacity=".75" d="m382.032 271.202-11.983 4.911 2.168 11.782h5.959l5.464-10.662-1.608-6.031z" fill="#99F1CD"/><path d="M370.873 270.258a3.103 3.103 0 0 0-3-2.303H355.65a3.095 3.095 0 0 0-2.992 2.303l-4.68 17.638h27.599l-4.704-17.638z" fill="#00DC82"/><path d="m381.128 282.2 9.6-1.047a3.295 3.295 0 0 1 3.495 2.263l1.712 5.28h-18.447l.76-3.856a3.313 3.313 0 0 1 2.88-2.64zm-29.814 12.047h-35.622l5.456-8.215a8.053 8.053 0 0 1 6.704-3.599 8.059 8.059 0 0 0 5.711-2.4l2.072-2.096a8.074 8.074 0 0 1 5.72-2.399h2.847a8.045 8.045 0 0 1 6.176 2.895l3.464 4.152a8.048 8.048 0 0 0 4.848 2.783l3.391.568a8 8 0 0 1 5.64 3.912l2.52 4.359-18.927.04zm284.702-19.981a12.553 12.553 0 0 0 3.64-5.991 14.392 14.392 0 0 0-7.831.528c.748-2.128.824-4.435.216-6.608a11.89 11.89 0 0 0-5.08 2.36 8.51 8.51 0 0 0-2.064-4.623 6.768 6.768 0 0 0-3.952 3.055 8.511 8.511 0 0 0-2.944-4.695s-3.367 1.296-3.999 6.175a12.642 12.642 0 0 0-3.848-4.623 15.525 15.525 0 0 0-2.032 4.679 11.189 11.189 0 0 0-4.672-3.423 12.069 12.069 0 0 0-1.088 6.703c-2.911-3.24-6.159-2.8-6.159-2.8a11.833 11.833 0 0 0-.144 4.527 10.93 10.93 0 0 0-6.808-.288 12.099 12.099 0 0 0 3.6 6.4c-4.752-.632-6.984 2.151-6.984 2.151a11.733 11.733 0 0 0 3.2 3.528l-.6.112a7.938 7.938 0 0 0-2.464-.84l-3.391-.568a8.044 8.044 0 0 1-4.848-2.784l-3.4-4.135a8.04 8.04 0 0 0-6.175-2.888h-2.856a8.06 8.06 0 0 0-5.712 2.4l-2.072 2.096a8.062 8.062 0 0 1-5.711 2.399 8 8 0 0 0-6.704 3.592l-5.464 8.215h48.957c.81.227 1.647.34 2.488.336h44.365a12.618 12.618 0 0 0-1.384-1.6c.264.096.544.192.8.272a8.988 8.988 0 0 0 5.08.04v-4.967a9.51 9.51 0 0 0-2.616-1.76 11.895 11.895 0 0 0 2.616-1.144v-5.215a11.737 11.737 0 0 0-3.96-.616zm-549.67 1.708a12.551 12.551 0 0 0 3.64-5.991 14.394 14.394 0 0 0-7.832.528 10.97 10.97 0 0 0 .216-6.608 11.904 11.904 0 0 0-5.08 2.36 8.501 8.501 0 0 0-2.063-4.623 6.766 6.766 0 0 0-3.952 3.055A8.518 8.518 0 0 0 68.33 260s-3.368 1.296-4 6.175a12.644 12.644 0 0 0-3.847-4.623 15.53 15.53 0 0 0-2.032 4.679 11.192 11.192 0 0 0-4.672-3.423 12.06 12.06 0 0 0-1.088 6.703c-2.912-3.24-6.16-2.8-6.16-2.8a11.835 11.835 0 0 0-.143 4.527 10.928 10.928 0 0 0-6.808-.288 12.102 12.102 0 0 0 3.6 6.4c-4.752-.632-6.984 2.151-6.984 2.151a11.725 11.725 0 0 0 3.2 3.528l-.6.112a7.942 7.942 0 0 0-2.464-.84l-3.392-.568a8.046 8.046 0 0 1-4.847-2.784l-3.4-4.135a8.04 8.04 0 0 0-6.176-2.888h-2.856a8.059 8.059 0 0 0-5.711 2.4l-2.072 2.096a8.063 8.063 0 0 1-5.712 2.399 8 8 0 0 0-6.703 3.592L-10 290.628h48.957c.81.227 1.647.34 2.488.336H85.81a12.681 12.681 0 0 0-1.384-1.6c.264.096.544.192.8.272a8.987 8.987 0 0 0 5.08.04v-4.967a9.521 9.521 0 0 0-2.616-1.76 11.896 11.896 0 0 0 2.616-1.144l4.202-3.305-4.202-1.91a11.736 11.736 0 0 0-3.96-.616z" fill="#002D2D"/><path d="M572.804 308.549h13.303l5.312-19.942h-10.567a3.552 3.552 0 0 0-3.432 2.632l-4.616 17.31z" fill="#33E39B"/><path opacity=".75" d="m591.427 288.607-2.176 8.159-12.919 11.783h-3.528l2.104-7.871 16.519-12.071z" fill="#99F1CD"/><path d="M588.427 290.911a3.099 3.099 0 0 1 2.992-2.304h12.223a3.096 3.096 0 0 1 3 2.304l4.704 17.638h-27.622l4.703-17.638z" fill="#00DC82"/><path d="M597.939 311.445h-44.27l10.464-9.263a7.502 7.502 0 0 1 4.991-1.896h3.696a7.522 7.522 0 0 1 5.16 2.04l1.6 1.496a7.519 7.519 0 0 0 5.159 2.039h4.288a7.547 7.547 0 0 1 5.16 2.048l3.752 3.536zm-286.638 6.454h-35.622l5.455-8.223a8.048 8.048 0 0 1 6.704-3.591 7.999 7.999 0 0 0 5.712-2.4l2.079-2.095a7.999 7.999 0 0 1 5.712-2.4h2.848a8.04 8.04 0 0 1 6.192 2.928l3.463 4.151a8.046 8.046 0 0 0 4.856 2.784l3.384.567a8.042 8.042 0 0 1 5.64 3.912l2.519 4.367h-18.942zm-54.685-29.187a8.079 8.079 0 0 0 7.439 4.239h44.366a11.911 11.911 0 0 0-1.384-1.6c.272.096.544.184.8.264 5.015 1.384 7.679-1.384 7.679-1.384a11.242 11.242 0 0 0-5.215-5.295 12.668 12.668 0 0 0 6.463-4.567s-3.648-2.536-7.791-2.344a12.635 12.635 0 0 0 3.647-5.991 14.392 14.392 0 0 0-7.831.528c.744-2.129.817-4.436.208-6.607a11.842 11.842 0 0 0-5.072 2.359 8.58 8.58 0 0 0-2.072-4.631 6.82 6.82 0 0 0-3.951 3.064 8.484 8.484 0 0 0-2.944-4.696s-3.368 1.296-4 6.175a12.57 12.57 0 0 0-3.848-4.623 15.55 15.55 0 0 0-2.032 4.679 11.107 11.107 0 0 0-4.671-3.431 12.158 12.158 0 0 0-1.048 6.703c-2.912-3.2-6.16-2.8-6.16-2.8a11.88 11.88 0 0 0-.144 4.536 10.912 10.912 0 0 0-6.807-.288 12.07 12.07 0 0 0 3.599 6.399c-4.743-.624-6.983 2.16-6.983 2.16a11.726 11.726 0 0 0 3.2 3.519 7.062 7.062 0 0 0-5.448 3.632z" fill="#002D2D"/><path d="M436.277 359.662c-13.295 0-23.199 11.39-30.398 25.636-7.344-24.132-18.399-50.321-34.31-65.591a1.6 1.6 0 0 0-2.16 0l-17.359 15.374 9.527-21.349a1.6 1.6 0 0 0-.656-2.032 38.172 38.172 0 0 0-18.862-5.039c-10.728 0-20.119 4.488-28.311 11.823-17.943-19.43-40.325-33.268-67.707-33.268-23.319 0-41.302 10.039-55.197 25.021-16.415-14.982-36.11-25.021-59.428-25.021a70.537 70.537 0 0 0-36.582 9.815l7.464 22.525-14.528-17.782c-19.11 14.398-31.95 37.643-40.533 61.152-4-7.287-17.735-34.426-47.237-29.426v68.444h472.522c-7.095-20.197-18.59-40.282-36.245-40.282z" fill="#003C3C"/><path d="m291.638 343.2-14.527 17.781 7.479-22.508a70.62 70.62 0 0 0-36.605-9.807c-31.766 0-56.797 18.637-75.996 43.01-9.231-10.399-19.463-19.197-30.534-24.685l-6.623 20.414-.288-23.341a50.917 50.917 0 0 0-31.782-1.056c-24.679 7.111-39.326 29.9-47.901 56.936h275.646c-8.551-21.973-20.926-43.25-38.869-56.744z" fill="#002D2D"/><path d="M355.618 309.1s-.944-6.815-4.168-8.734c-4.896-1.92-15.927-4.136-20.359-3.448a22.851 22.851 0 0 0-6.135 3.632 7.793 7.793 0 0 0-2.768 5.175l-1.712 15.894.12.312c-5.656 4.127-14.839 11.07-22.903 18.189l-5.647-61.335s-38.062 17.837-38.062 50.849c0 24.38 12.343 44.281 21.919 56.064 7.055 8.67 19.087 9.054 26.758.928 14.287-15.126 25.886-41.203 30.654-52.897 7.608-.568 17.015-16.846 15.719-26.284l6.584 1.655z" fill="#A7816D"/><path d="M170.205 213.034s-29.902 19.725-40.797 30.636c-4.8 4.799-5.528 20.261 0 26.764 6.976 8.215 21.127 11.527 21.127 11.527s39.413-8.103 39.413-28.365c0-20.261-19.743-40.562-19.743-40.562z" fill="#FF6446"/><path d="M130.832 247.501c-5.88 3.32-18.791 17.822-26.783 27.197a18.324 18.324 0 0 0-2.399 20.349c14.135 27.196 49.901 35.043 49.901 35.043s6.975-65.327-20.719-82.589z" fill="#A7816D"/><path d="M272.566 189.125c4 4.336 8.223 9.223 5.216 11.663-2.88 2.328-11.399-.816-11.399-.816l6.183-10.847z" fill="#7D6152"/><path d="M227.122 172.352c2.68-16.862 18.399-18.334 25.926-17.134 11.023 1.744 23.247 12.174 20.527 29.316a251.332 251.332 0 0 1-6.848 30.068 5.046 5.046 0 0 1-3.951 3.575 28.77 28.77 0 0 1-7.2.416l-4.624 13.598-43.149-6.839 22.463-38.394c-3.152-4.392-3.984-9.271-3.144-14.606z" fill="#A7816D"/><path d="M281.694 168.376c-1.248-5.015-4.151-7.015-8.111-7.199 4.344-3.479 6.503-7.838 3.952-12.702-3.376-6.447-8.84-5.743-13.416-3.343l-.959.504c1.711-3.832.495-6.855-2.208-9.399-3.76-3.552-9-3.44-13.479 1.304-.6.64-1.128 1.272-1.6 1.912-2.072-4.496-5.6-8.183-10.336-7.024-5.047 1.248-8.799 7.871-6.799 15.758.185.777.434 1.536.744 2.272l-.376.08a31.052 31.052 0 0 0-.632-3.408c-1.712-6.887-5.264-11.646-11.456-10.11-6.191 1.536-7.295 6.671-5.407 14.294.168.656.352 1.28.544 1.88l-1.048-.104c-9.368-.696-13.135 4.407-13.599 10.63-.408 5.447 3.935 8.975 9.543 10.119-5.6 2.775-9.655 8.135-8.271 13.71 1.383 5.575 6.887 6.687 12.927 5.943-3.44 2.984-4.696 6.223-3.28 8.975 2.304 4.495 6.904 6.919 14.183 3.199l.856-.464c.084.731.218 1.455.4 2.168 1.48 5.999 7.32 7.903 12.999 6.495 5.216-1.288 8.848-4.271 7.912-10.806 4.463 4.799 9.327 3.743 12.991 1.063 4.04-2.951 4.192-8.534.544-13.518-.296-.408-.616-.8-.944-1.199 4.936 3.815 10.047 3.711 12.911.799 2.4-2.399 2.336-5.639.144-9.166.656-.096 1.32-.224 1.984-.384 6.536-1.648 11.079-5.04 9.287-12.279z" fill="#002D2D"/><path d="m299.621 332.209-3.895-42.05a52.72 52.72 0 0 0-9.064-25.044c-9.207-13.366-25.638-34.067-44.709-43.914-29.454-15.198-71.748-8.167-71.748-8.167-33.158 34.323-53.188 141.316-53.188 141.316l90.666 22.013c19.327.12 24.703-15.63 38.574-39.674 1.76 6.007 3.407 10.726 4.263 13.062a1.705 1.705 0 0 0 2.208 1.016l45.869-16.91a1.598 1.598 0 0 0 1.024-1.648z" fill="#FF6446"/><path d="M221.482 373.236c-15.703-15.95-36.717-24.613-76.379-24.613-14.799 0-28.086 5.703-28.086 5.703S93.202 372.26 88.394 399.92h137.864l-3.072-9.255s6.48-9.119-1.704-17.429z" fill="#336363"/><path d="M213.427 384.482c-3.392-7.103-8.648-9.67-13.719-12.15l1.399-2.872c5.048 2.464 11.336 5.536 15.199 13.639l-2.879 1.383zM255.6 218.593l1.184-3.503c1.68 1.28 4.951 2.863 7.791 2.4-1.536 1.495-8.975 1.103-8.975 1.103z" fill="#003C3C"/><path d="M231.642 335.625s6.575 2.232 14.463-1.879l3.048 12.086s-11.2 5.823-22.503 5.823l4.992-16.03zm-21.711 28.676c-1.992 10.606-47.461 18.013-76.491 12.038-26.543-5.471-31.014-21.221-29.023-31.835 1.992-10.615 27.199-14.774 56.357-9.311 29.158 5.463 51.141 18.501 49.157 29.108z" fill="#002D2D"/><path d="m298.733 361.253-3.199-.272a90.603 90.603 0 0 0 .096-16.221l3.199-.328a93.943 93.943 0 0 1-.096 16.821z" fill="#614B3F"/><path d="m271.063 245.149-24.958 28.388-2.632-19.645 27.59-8.743z" fill="#003C3C"/><path d="M246.105 236.183c11.359-6.111 19.27-5.175 22.838-2.192 3.568 2.984 6.904 8.519 7.56 11.543a10.583 10.583 0 0 1-.32 5.599c-2.224-2.824-5.12-5.991-5.12-5.991-12.943 4.799-23.286 14.03-23.286 14.03l-1.672-22.989z" fill="#336363"/><path d="m292.214 336.185-34.878 20.277-.824-7.111 35.702-13.166z" fill="#002D2D"/><path d="m131.904 279.753-13.991 1.92a4.352 4.352 0 0 0-2.656 1.431c-18.503 21.293-24.239 37.035-24.239 46.274 0 9.407 7.416 18.397 16.999 18.397 6.48-.008 23.887-31.235 23.887-68.022z" fill="#336363"/><ellipse cx="211.643" cy="212.578" rx="23.119" ry="15.926" stroke="#5A7D7D" stroke-width="9"/><path d="M252.08 230.104c-9.215-8.247-15.695-10.831-22.662-10.831-26.223 0-36.798-2.671-46.206-5.359-15.703-4.495-26.046-2-28.606 7.199-4.799 17.286-19.199 48.849-26.318 59.656-18.399 14.462-28.798 31.819-29.75 43.394-.952 11.574 4.328 23.092 9.599 25.972 8.392 4.591 62.684 20.317 81.123 19.349 18.439-.968 33.598-10.606 42.341-30.284 8.744-19.677 23.343-75.989 26.199-90.651 1.624-8.343.072-13.254-5.72-18.445z" fill="#5A7D7D"/><path d="M252.424 305.813c-7.999-6.439-28.102-12.742-36.646-13.278a2.734 2.734 0 0 0-2.567 1.352c-8.424 14.574-24.775 23.668-30.023 42.81-5.375 19.701 5.84 33.403 20.407 33.403s28.846-5.239 36.71-20.477c7.599-14.726 11.255-27.3 13.071-41.322a2.736 2.736 0 0 0-.952-2.488z" fill="#336363"/><path d="M195.572 343.232c-.888 0-1.784 0-2.68-.088a1.604 1.604 0 0 1 .2-3.2c22.527 1.432 38.11-16.262 43.789-26.94a1.6 1.6 0 1 1 2.824 1.504c-7.719 14.574-24.214 28.724-44.133 28.724zm-58.325-78.957-3.103 6.199c12.247 3.76 58.124 15.886 65.924 18.285 7.799 2.4 14.535-.231 17.598-9.99 3.064-9.759-80.419-14.494-80.419-14.494z" fill="#003C3C"/><path d="M253.328 231.279c-2.696-6.399-6.167-10.75-13.599-13.51-13.991-5.207-53.709-9.374-63.044-10.278-9.335-.904-22.183 1.248-24.847 9.598-3.879 12.167-11.799 32.796-17.454 41.595-3.456 5.391-1.6 8.71 4.239 10.398 5.84 1.688 57.965 14.198 65.468 15.958 7.504 1.76 14.919-1.008 17.183-5.303 3.144-5.96 8.928-39.195 9.36-46.234.304-4.935 5.687-8.199 11.727-7.407a18.296 18.296 0 0 1 10.967 5.183z" fill="#336363"/><path d="M204.051 266.595c-18.207-2.208-38.661-23.549-40.637-37.875l3.2-.44c1.792 12.998 21.198 33.124 37.853 35.139l-.416 3.176zm-24.342 1.424a1.598 1.598 0 0 0-1.184-2.04l-11.055-2.4a1.6 1.6 0 0 0-1.88 1.136c-.8 2.976-2.832 9.799-5.08 13.598-.392.664-.88 1.384-1.416 2.136-1.6-.504-3.2-.944-4.688-1.256a1.601 1.601 0 0 0-1.656.632l-2.111 2.96a1.598 1.598 0 0 0 .952 2.495c.799.176 1.807.424 2.951.72a134.512 134.512 0 0 1-3.095 3.376 1.597 1.597 0 0 0 .592 2.591l10.207 3.912a1.6 1.6 0 0 0 1.736-.4c.904-.96 2.528-2.736 4.264-4.799 1.135.48 2.287.983 3.463 1.535a1.6 1.6 0 0 0 1.888-.392l2.328-2.671a1.6 1.6 0 0 0-.568-2.512c-.8-.36-1.848-.8-3.032-1.296a31.099 31.099 0 0 0 1.656-2.687c2.36-4.376 4.712-11.439 5.728-14.638z" fill="#003C3C"/><ellipse cx="223.402" cy="249.653" rx="16.895" ry="16.894" fill="#003C3C"/><ellipse cx="221.21" cy="247.469" rx="16.895" ry="16.894" fill="#00D180"/><path fill-rule="evenodd" clip-rule="evenodd" d="m233.721 248.661-8.055 4.168.144-2.992 5.288-2.735-7.52-4.8-.136 2.976-.256 5.551a5.534 5.534 0 0 1-3.152 4.919l-5.055 2.616a1.6 1.6 0 0 1-2.4-1.536l.696-15.134a1.6 1.6 0 0 1 2.519-1.312l5.128 3.288.144-3.112a1.647 1.647 0 0 1 2.528-1.303l10.255 6.567c.495.315.784.87.757 1.456a1.636 1.636 0 0 1-.885 1.383zm-18.495 6.664 3.536-1.824v.008a3.098 3.098 0 0 0 1.84-2.88l.184-3.999-5.016-3.2-.544 11.895z" fill="#003C3C"/><path d="M208.059 247.47h-1.6c.005-8.243 6.684-14.926 14.927-14.934v1.599c-7.358.014-13.318 5.977-13.327 13.335z" fill="#8FE7C3"/><path d="M593.371 308.549h7.663l3.063-11.487h-6.087a2.048 2.048 0 0 0-1.975 1.512l-2.664 9.975z" fill="#33E39B"/><path opacity=".75" d="m604.097 297.062-1.255 4.696-7.439 6.791h-2.032l1.216-4.535 9.51-6.952z" fill="#99F1CD"/><path d="M602.362 298.358a1.793 1.793 0 0 1 1.728-1.328h7.072c.81.002 1.518.546 1.728 1.328l2.704 10.159h-15.935l2.703-10.159z" fill="#00DC82"/><path d="M619.905 315.46s-11.519.8-18.823 14.398a39.248 39.248 0 0 0-2.399-16.526 36.793 36.793 0 0 0-17.527 11.199 39.442 39.442 0 0 0-7.2-15.854 37.247 37.247 0 0 0-11.879 12.334 50.73 50.73 0 0 0-10.791-16.142 39.87 39.87 0 0 0-7.2 11.119c-5.704-13.894-16.703-15.654-16.703-15.654a27.992 27.992 0 0 0-5.352 10.127 51.148 51.148 0 0 0-11.823-9.599 41.341 41.341 0 0 0-4.56 16.326c-7.719-9.863-17.127-9.759-17.127-9.759a28.3 28.3 0 0 0-3.199 19.197 40.07 40.07 0 0 0-20.607-5.599 36.887 36.887 0 0 0 4.272 19.997 50.953 50.953 0 0 0-17.551-2.879 40.734 40.734 0 0 0 3.832 14.782c-11.632-2.912-23.047.416-23.047.416a41.204 41.204 0 0 0 8.719 15.197 39.51 39.51 0 0 0-17.358 3.448s4.799 15.318 19.518 20.693l.344.12A44.601 44.601 0 0 0 428.653 400H639.96v-70.006a34.69 34.69 0 0 0-16.735 5.727 38.57 38.57 0 0 0-3.32-20.261z" fill="#1B7064"/><path d="M620.657 363.893a39.188 39.188 0 0 0-3.2-15.726s-6.159.28-12.455 5.664a51.032 51.032 0 0 0-4.448-13.791 39.168 39.168 0 0 0-9.303 7.111c-1.272-7.838-5.6-11.814-5.6-11.814a28.345 28.345 0 0 0-12.167 7.551c-2.928-7.639-8.215-10.662-8.215-10.662a28.378 28.378 0 0 0-9.968 9.598 50.065 50.065 0 0 0-6.767-9.31 41.325 41.325 0 0 0-9.224 14.542 39.385 39.385 0 0 0-10.263-13.303 37.173 37.173 0 0 0-7.64 11.343 38.914 38.914 0 0 0-16.335-8.343 21.735 21.735 0 0 0-2.975 10.734c-8.456-4.703-15.471-2.791-15.471-2.791a27.778 27.778 0 0 0-.8 10.398 38.584 38.584 0 0 0-11.008.424s-.96 5.216 1.944 11.831a50.518 50.518 0 0 0-19.343 5.047 39.994 39.994 0 0 0 8.248 10.398 38.994 38.994 0 0 0-16.207 7.695s1.6 5.016 7.295 9.447H639.96V357.35c-3.096-.344-11.055-.376-19.303 6.543z" fill="#003C3C"/><path d="m615.61 298.766 15.663-1.72a5.384 5.384 0 0 1 5.703 3.696l2.792 8.607h-30.094l1.24-6.287a5.376 5.376 0 0 1 4.696-4.296z" fill="#002D2D"/></g><defs><clipPath id="a"><path fill="#fff" d="M0 0h640v400H0z"/></clipPath></defs></svg>